solid ascii
  facet normal -5.919863e-008 -5.000000e-001 -8.660253e-001
    outer loop
      vertex   2.737568e+001 -1.250673e+001 4.738159e+000
      vertex   3.760000e+001 -4.300000e+000 0.000000e+000
      vertex   2.052704e+001 -2.892019e+001 1.421448e+001
    endloop
  endfacet
  facet normal 0.000000e+000 1.000000e+000 0.000000e+000
    outer loop
      vertex   4.299501e+001 3.570000e+001 2.600000e+001
      vertex   4.400000e+001 3.570000e+001 0.000000e+000
      vertex   4.299501e+001 3.570000e+001 1.000000e+000
    endloop
  endfacet
  facet normal 7.369900e-001 -6.387189e-001 -2.210972e-001
    outer loop
      vertex   3.270901e+001 -1.250673e+001 7.404825e+000
      vertex   2.052704e+001 -2.892019e+001 1.421448e+001
      vertex   3.760000e+001 -4.300000e+000 0.000000e+000
    endloop
  endfacet
  facet normal 0.000000e+000 1.000000e+000 0.000000e+000
    outer loop
      vertex   4.400000e+001 3.570000e+001 0.000000e+000
      vertex   2.400000e+001 3.570000e+001 0.000000e+000
      vertex   4.299501e+001 3.570000e+001 1.000000e+000
    endloop
  endfacet
  facet normal -1.000000e+000 0.000000e+000 0.000000e+000
    outer loop
      vertex   2.400000e+001 1.570000e+001 1.350000e+001
      vertex   2.400000e+001 -4.300000e+000 0.000000e+000
      vertex   2.400000e+001 -4.300000e+000 2.700000e+001
    endloop
  endfacet
  facet normal 0.000000e+000 0.000000e+000 -1.000000e+000
    outer loop
      vertex   3.240000e+001 1.570000e+001 0.000000e+000
      vertex   3.760000e+001 -4.300000e+000 0.000000e+000
      vertex   2.400000e+001 -4.300000e+000 0.000000e+000
    endloop
  endfacet
  facet normal 9.950371e-001 -9.950372e-002 0.000000e+000
    outer loop
      vertex   4.200000e+001 1.570000e+001 1.350000e+001
      vertex   4.400000e+001 3.570000e+001 0.000000e+000
      vertex   4.400000e+001 3.570000e+001 2.700000e+001
    endloop
  endfacet
  facet normal -1.000000e+000 0.000000e+000 -0.000000e+000
    outer loop
      vertex   2.400000e+001 1.570000e+001 1.350000e+001
      vertex   2.400000e+001 3.570000e+001 2.700000e+001
      vertex   2.400000e+001 3.570000e+001 0.000000e+000
    endloop
  endfacet
  facet normal 0.000000e+000 0.000000e+000 -1.000000e+000
    outer loop
      vertex   3.240000e+001 1.570000e+001 0.000000e+000
      vertex   2.400000e+001 -4.300000e+000 0.000000e+000
      vertex   2.400000e+001 3.570000e+001 0.000000e+000
    endloop
  endfacet
  facet normal 0.000000e+000 0.000000e+000 -1.000000e+000
    outer loop
      vertex   3.240000e+001 1.570000e+001 0.000000e+000
      vertex   4.400000e+001 3.570000e+001 0.000000e+000
      vertex   3.760000e+001 -4.300000e+000 0.000000e+000
    endloop
  endfacet
  facet normal 7.369900e-001 -6.387189e-001 -2.210971e-001
    outer loop
      vertex   3.270901e+001 -1.250673e+001 7.404825e+000
      vertex   3.760000e+001 -4.300000e+000 0.000000e+000
      vertex   4.000000e+001 -4.300000e+000 8.000000e+000
    endloop
  endfacet
  facet normal 9.467726e-001 -1.514837e-001 -2.840320e-001
    outer loop
      vertex   4.053333e+001 9.033333e+000 2.666667e+000
      vertex   3.760000e+001 -4.300000e+000 0.000000e+000
      vertex   4.400000e+001 3.570000e+001 0.000000e+000
    endloop
  endfacet
  facet normal 9.950372e-001 -9.950372e-002 0.000000e+000
    outer loop
      vertex   4.200000e+001 1.570000e+001 1.350000e+001
      vertex   4.000000e+001 -4.300000e+000 8.000000e+000
      vertex   4.400000e+001 3.570000e+001 0.000000e+000
    endloop
  endfacet
  facet normal -9.901968e-001 1.396788e-001 0.000000e+000
    outer loop
      vertex   2.226352e+001 -1.661010e+001 1.596832e+001
      vertex   2.400000e+001 -4.300000e+000 2.700000e+001
      vertex   2.400000e+001 -4.300000e+000 0.000000e+000
    endloop
  endfacet
  facet normal -9.901969e-001 1.396787e-001 -1.211997e-007
    outer loop
      vertex   2.226352e+001 -1.661010e+001 1.596832e+001
      vertex   2.400000e+001 -4.300000e+000 0.000000e+000
      vertex   2.052704e+001 -2.892019e+001 1.421448e+001
    endloop
  endfacet
  facet normal 0.000000e+000 -5.000000e-001 -8.660253e-001
    outer loop
      vertex   2.737568e+001 -1.250673e+001 4.738159e+000
      vertex   2.400000e+001 -4.300000e+000 0.000000e+000
      vertex   3.760000e+001 -4.300000e+000 0.000000e+000
    endloop
  endfacet
  facet normal 9.467727e-001 -1.514837e-001 -2.840320e-001
    outer loop
      vertex   4.053333e+001 9.033333e+000 2.666667e+000
      vertex   4.000000e+001 -4.300000e+000 8.000000e+000
      vertex   3.760000e+001 -4.300000e+000 0.000000e+000
    endloop
  endfacet
  facet normal 9.467727e-001 -1.514836e-001 -2.840319e-001
    outer loop
      vertex   4.053333e+001 9.033333e+000 2.666667e+000
      vertex   4.400000e+001 3.570000e+001 0.000000e+000
      vertex   4.000000e+001 -4.300000e+000 8.000000e+000
    endloop
  endfacet
  facet normal 0.000000e+000 1.000000e+000 -0.000000e+000
    outer loop
      vertex   4.400000e+001 3.570000e+001 2.700000e+001
      vertex   4.400000e+001 3.570000e+001 0.000000e+000
      vertex   4.299501e+001 3.570000e+001 2.600000e+001
    endloop
  endfacet
  facet normal 0.000000e+000 0.000000e+000 -1.000000e+000
    outer loop
      vertex   3.240000e+001 1.570000e+001 0.000000e+000
      vertex   2.400000e+001 3.570000e+001 0.000000e+000
      vertex   4.400000e+001 3.570000e+001 0.000000e+000
    endloop
  endfacet
  facet normal -1.000000e+000 0.000000e+000 0.000000e+000
    outer loop
      vertex   2.400000e+001 1.570000e+001 1.350000e+001
      vertex   2.400000e+001 3.570000e+001 0.000000e+000
      vertex   2.400000e+001 -4.300000e+000 0.000000e+000
    endloop
  endfacet
  facet normal 0.000000e+000 1.000000e+000 0.000000e+000
    outer loop
      vertex   4.299501e+001 3.570000e+001 1.000000e+000
      vertex   2.400000e+001 3.570000e+001 0.000000e+000
      vertex   2.500000e+001 3.570000e+001 1.000000e+000
    endloop
  endfacet
  facet normal 0.000000e+000 1.000000e+000 0.000000e+000
    outer loop
      vertex   2.400000e+001 3.570000e+001 2.700000e+001
      vertex   2.500000e+001 3.570000e+001 1.000000e+000
      vertex   2.400000e+001 3.570000e+001 0.000000e+000
    endloop
  endfacet
  facet normal 0.000000e+000 -5.000001e-001 -8.660254e-001
    outer loop
      vertex   2.737568e+001 -1.250673e+001 4.738159e+000
      vertex   2.052704e+001 -2.892019e+001 1.421448e+001
      vertex   2.400000e+001 -4.300000e+000 0.000000e+000
    endloop
  endfacet
  facet normal -7.369845e-001 6.387225e-001 2.211048e-001
    outer loop
      vertex   3.264077e+001 -1.105957e+001 7.519587e+000
      vertex   3.691185e+001 -3.874546e+000 1.000000e+000
      vertex   3.677535e+001 -4.032051e+000 1.000000e+000
    endloop
  endfacet
  facet normal -7.369897e-001 6.387190e-001 2.210977e-001
    outer loop
      vertex   3.264077e+001 -1.105957e+001 7.519587e+000
      vertex   3.677535e+001 -4.032051e+000 1.000000e+000
      vertex   2.205287e+001 -2.526272e+001 1.325753e+001
    endloop
  endfacet
  facet normal 0.000000e+000 -0.000000e+000 1.000000e+000
    outer loop
      vertex   3.487710e+001 1.516920e+001 1.000000e+000
      vertex   3.691185e+001 -3.874546e+000 1.000000e+000
      vertex   4.258040e+001 3.155387e+001 1.000000e+000
    endloop
  endfacet
  facet normal -9.467727e-001 1.514836e-001 2.840320e-001
    outer loop
      vertex   3.950994e+001 7.934925e+000 3.361894e+000
      vertex   3.903756e+001 -3.874546e+000 8.085683e+000
      vertex   4.258040e+001 3.155387e+001 1.000000e+000
    endloop
  endfacet
  facet normal 0.000000e+000 1.000000e+000 -0.000000e+000
    outer loop
      vertex   2.500000e+001 3.570000e+001 2.600000e+001
      vertex   2.500000e+001 3.570000e+001 1.000000e+000
      vertex   2.400000e+001 3.570000e+001 2.700000e+001
    endloop
  endfacet
  facet normal 0.000000e+000 0.000000e+000 1.000000e+000
    outer loop
      vertex   3.487710e+001 1.516920e+001 1.000000e+000
      vertex   2.500000e+001 -4.032051e+000 1.000000e+000
      vertex   3.677535e+001 -4.032051e+000 1.000000e+000
    endloop
  endfacet
  facet normal 1.000000e+000 -0.000000e+000 0.000000e+000
    outer loop
      vertex   2.500000e+001 9.069179e+000 1.352790e+001
      vertex   2.500000e+001 -4.370183e+000 1.195221e+000
      vertex   2.500000e+001 -4.032051e+000 1.000000e+000
    endloop
  endfacet
  facet normal 1.000000e+000 0.000000e+000 0.000000e+000
    outer loop
      vertex   2.500000e+001 9.069179e+000 1.352790e+001
      vertex   2.500000e+001 -4.032051e+000 1.000000e+000
      vertex   2.500000e+001 3.570000e+001 1.000000e+000
    endloop
  endfacet
  facet normal -9.467728e-001 1.514836e-001 2.840319e-001
    outer loop
      vertex   3.950994e+001 7.934925e+000 3.361894e+000
      vertex   3.691185e+001 -3.874546e+000 1.000000e+000
      vertex   3.903756e+001 -3.874546e+000 8.085683e+000
    endloop
  endfacet
  facet normal -9.467728e-001 1.514836e-001 2.840320e-001
    outer loop
      vertex   3.950994e+001 7.934925e+000 3.361894e+000
      vertex   4.258040e+001 3.155387e+001 1.000000e+000
      vertex   3.691185e+001 -3.874546e+000 1.000000e+000
    endloop
  endfacet
  facet normal 1.000000e+000 0.000000e+000 -0.000000e+000
    outer loop
      vertex   2.500000e+001 9.069179e+000 1.352790e+001
      vertex   2.500000e+001 3.570000e+001 1.000000e+000
      vertex   2.500000e+001 3.570000e+001 2.600000e+001
    endloop
  endfacet
  facet normal 0.000000e+000 -0.000000e+000 1.000000e+000
    outer loop
      vertex   3.487710e+001 1.516920e+001 1.000000e+000
      vertex   4.258040e+001 3.155387e+001 1.000000e+000
      vertex   4.299501e+001 3.570000e+001 1.000000e+000
    endloop
  endfacet
  facet normal 0.000000e+000 0.000000e+000 1.000000e+000
    outer loop
      vertex   3.487710e+001 1.516920e+001 1.000000e+000
      vertex   4.299501e+001 3.570000e+001 1.000000e+000
      vertex   2.500000e+001 3.570000e+001 1.000000e+000
    endloop
  endfacet
  facet normal -7.369900e-001 6.387188e-001 2.210971e-001
    outer loop
      vertex   3.264077e+001 -1.105957e+001 7.519587e+000
      vertex   3.903756e+001 -3.874546e+000 8.085683e+000
      vertex   3.691185e+001 -3.874546e+000 1.000000e+000
    endloop
  endfacet
  facet normal -9.950372e-001 9.950364e-002 -4.795614e-008
    outer loop
      vertex   4.117951e+001 1.754496e+001 1.273820e+001
      vertex   4.258040e+001 3.155387e+001 1.000000e+000
      vertex   3.903756e+001 -3.874546e+000 8.085683e+000
    endloop
  endfacet
  facet normal 8.426914e-009 5.000000e-001 8.660254e-001
    outer loop
      vertex   3.677535e+001 -4.032051e+000 1.000000e+000
      vertex   2.500000e+001 -4.370183e+000 1.195221e+000
      vertex   2.205287e+001 -2.526272e+001 1.325753e+001
    endloop
  endfacet
  facet normal -0.000000e+000 5.000002e-001 8.660252e-001
    outer loop
      vertex   3.677535e+001 -4.032051e+000 1.000000e+000
      vertex   2.500000e+001 -4.032051e+000 1.000000e+000
      vertex   2.500000e+001 -4.370183e+000 1.195221e+000
    endloop
  endfacet
  facet normal 0.000000e+000 0.000000e+000 1.000000e+000
    outer loop
      vertex   3.487710e+001 1.516920e+001 1.000000e+000
      vertex   2.500000e+001 3.570000e+001 1.000000e+000
      vertex   2.500000e+001 -4.032051e+000 1.000000e+000
    endloop
  endfacet
  facet normal -9.950372e-001 9.950383e-002 0.000000e+000
    outer loop
      vertex   4.117951e+001 1.754496e+001 1.273820e+001
      vertex   4.299501e+001 3.570000e+001 2.600000e+001
      vertex   4.299501e+001 3.570000e+001 1.000000e+000
    endloop
  endfacet
  facet normal -9.950371e-001 9.950431e-002 7.409322e-007
    outer loop
      vertex   4.117951e+001 1.754496e+001 1.273820e+001
      vertex   4.299501e+001 3.570000e+001 1.000000e+000
      vertex   4.258040e+001 3.155387e+001 1.000000e+000
    endloop
  endfacet
  facet normal 0.000000e+000 -0.000000e+000 1.000000e+000
    outer loop
      vertex   3.487710e+001 1.516920e+001 1.000000e+000
      vertex   3.677535e+001 -4.032051e+000 1.000000e+000
      vertex   3.691185e+001 -3.874546e+000 1.000000e+000
    endloop
  endfacet
  facet normal 9.901969e-001 -1.396788e-001 -3.802315e-008
    outer loop
      vertex   2.302724e+001 -1.835530e+001 1.640190e+001
      vertex   2.205287e+001 -2.526272e+001 1.325753e+001
      vertex   2.500000e+001 -4.370183e+000 1.195221e+000
    endloop
  endfacet
  facet normal 9.901969e-001 -1.396787e-001 0.000000e+000
    outer loop
      vertex   2.302724e+001 -1.835530e+001 1.640190e+001
      vertex   2.500000e+001 -4.370183e+000 1.195221e+000
      vertex   2.500000e+001 -4.370183e+000 2.597220e+001
    endloop
  endfacet
  facet normal 1.000000e+000 0.000000e+000 0.000000e+000
    outer loop
      vertex   2.500000e+001 9.069179e+000 1.352790e+001
      vertex   2.500000e+001 -4.370183e+000 2.597220e+001
      vertex   2.500000e+001 -4.370183e+000 1.195221e+000
    endloop
  endfacet
  facet normal 7.369899e-001 -6.387188e-001 -2.210973e-001
    outer loop
      vertex   3.270901e+001 -1.250673e+001 7.404825e+000
      vertex   4.000000e+001 -4.300000e+000 8.000000e+000
      vertex   2.052704e+001 -2.892019e+001 1.421448e+001
    endloop
  endfacet
  facet normal -7.369903e-001 6.387188e-001 2.210963e-001
    outer loop
      vertex   3.264077e+001 -1.105957e+001 7.519587e+000
      vertex   2.203289e+001 -2.540430e+001 1.359998e+001
      vertex   3.903409e+001 -3.909234e+000 8.174329e+000
    endloop
  endfacet
  facet normal -7.369925e-001 6.387226e-001 2.210776e-001
    outer loop
      vertex   3.264077e+001 -1.105957e+001 7.519587e+000
      vertex   3.903409e+001 -3.909234e+000 8.174329e+000
      vertex   3.903756e+001 -3.874546e+000 8.085683e+000
    endloop
  endfacet
  facet normal -7.369893e-001 6.387191e-001 2.210986e-001
    outer loop
      vertex   3.264077e+001 -1.105957e+001 7.519587e+000
      vertex   2.205287e+001 -2.526272e+001 1.325753e+001
      vertex   2.203289e+001 -2.540430e+001 1.359998e+001
    endloop
  endfacet
  facet normal 7.843251e-001 -6.203500e-001 0.000000e+000
    outer loop
      vertex   3.026352e+001 -1.661010e+001 1.596832e+001
      vertex   4.000000e+001 -4.300000e+000 8.000000e+000
      vertex   4.000000e+001 -4.300000e+000 1.900000e+001
    endloop
  endfacet
  facet normal 7.843252e-001 -6.203499e-001 1.999963e-007
    outer loop
      vertex   3.026352e+001 -1.661010e+001 1.596832e+001
      vertex   2.052704e+001 -2.892019e+001 1.421448e+001
      vertex   4.000000e+001 -4.300000e+000 8.000000e+000
    endloop
  endfacet
  facet normal 9.950372e-001 -9.950372e-002 0.000000e+000
    outer loop
      vertex   4.200000e+001 1.570000e+001 1.350000e+001
      vertex   4.000000e+001 -4.300000e+000 1.900000e+001
      vertex   4.000000e+001 -4.300000e+000 8.000000e+000
    endloop
  endfacet
  facet normal -9.950366e-001 9.950936e-002 -2.667277e-005
    outer loop
      vertex   4.117951e+001 1.754496e+001 1.273820e+001
      vertex   3.903756e+001 -3.874546e+000 8.085683e+000
      vertex   3.903409e+001 -3.909234e+000 8.174329e+000
    endloop
  endfacet
  facet normal -7.843252e-001 6.203499e-001 0.000000e+000
    outer loop
      vertex   3.223308e+001 -1.250794e+001 1.634090e+001
      vertex   3.903409e+001 -3.909234e+000 8.174329e+000
      vertex   2.203289e+001 -2.540430e+001 1.359998e+001
    endloop
  endfacet
  facet normal -9.950372e-001 9.950374e-002 0.000000e+000
    outer loop
      vertex   4.117951e+001 1.754496e+001 1.273820e+001
      vertex   3.903409e+001 -3.909234e+000 8.174329e+000
      vertex   3.903409e+001 -3.909234e+000 1.890738e+001
    endloop
  endfacet
  facet normal -7.843252e-001 6.203499e-001 0.000000e+000
    outer loop
      vertex   3.223308e+001 -1.250794e+001 1.634090e+001
      vertex   3.903409e+001 -3.909234e+000 1.890738e+001
      vertex   3.903409e+001 -3.909234e+000 8.174329e+000
    endloop
  endfacet
  facet normal -9.950372e-001 9.950374e-002 -4.093079e-008
    outer loop
      vertex   4.117951e+001 1.754496e+001 1.273820e+001
      vertex   3.903409e+001 -3.909234e+000 1.890738e+001
      vertex   4.258040e+001 3.155387e+001 2.600000e+001
    endloop
  endfacet
  facet normal -9.950371e-001 9.950431e-002 -6.558090e-007
    outer loop
      vertex   4.117951e+001 1.754496e+001 1.273820e+001
      vertex   4.258040e+001 3.155387e+001 2.600000e+001
      vertex   4.299501e+001 3.570000e+001 2.600000e+001
    endloop
  endfacet
  facet normal 9.901970e-001 -1.396782e-001 -1.328184e-006
    outer loop
      vertex   2.302724e+001 -1.835530e+001 1.640190e+001
      vertex   2.203289e+001 -2.540430e+001 1.359998e+001
      vertex   2.205287e+001 -2.526272e+001 1.325753e+001
    endloop
  endfacet
  facet normal -1.000000e+000 0.000000e+000 0.000000e+000
    outer loop
      vertex   2.400000e+001 1.570000e+001 1.350000e+001
      vertex   2.400000e+001 -4.300000e+000 2.700000e+001
      vertex   2.400000e+001 3.570000e+001 2.700000e+001
    endloop
  endfacet
  facet normal 9.950372e-001 -9.950372e-002 0.000000e+000
    outer loop
      vertex   4.200000e+001 1.570000e+001 1.350000e+001
      vertex   4.400000e+001 3.570000e+001 2.700000e+001
      vertex   4.000000e+001 -4.300000e+000 1.900000e+001
    endloop
  endfacet
  facet normal 1.000000e+000 0.000000e+000 0.000000e+000
    outer loop
      vertex   2.500000e+001 9.069179e+000 1.352790e+001
      vertex   2.500000e+001 -4.212512e+000 2.600000e+001
      vertex   2.500000e+001 -4.370183e+000 2.597220e+001
    endloop
  endfacet
  facet normal 1.000000e+000 0.000000e+000 0.000000e+000
    outer loop
      vertex   2.500000e+001 9.069179e+000 1.352790e+001
      vertex   2.500000e+001 3.570000e+001 2.600000e+001
      vertex   2.500000e+001 -4.212512e+000 2.600000e+001
    endloop
  endfacet
  facet normal 9.901968e-001 -1.396787e-001 0.000000e+000
    outer loop
      vertex   2.302724e+001 -1.835530e+001 1.640190e+001
      vertex   2.203289e+001 -2.540430e+001 2.210834e+001
      vertex   2.203289e+001 -2.540430e+001 1.359998e+001
    endloop
  endfacet
  facet normal -7.843252e-001 6.203499e-001 0.000000e+000
    outer loop
      vertex   3.223308e+001 -1.250794e+001 1.634090e+001
      vertex   2.203289e+001 -2.540430e+001 1.359998e+001
      vertex   2.203289e+001 -2.540430e+001 2.210834e+001
    endloop
  endfacet
  facet normal 7.843252e-001 -6.203499e-001 0.000000e+000
    outer loop
      vertex   3.026352e+001 -1.661010e+001 1.596832e+001
      vertex   2.052704e+001 -2.892019e+001 2.265880e+001
      vertex   2.052704e+001 -2.892019e+001 1.421448e+001
    endloop
  endfacet
  facet normal -9.901969e-001 1.396787e-001 0.000000e+000
    outer loop
      vertex   2.226352e+001 -1.661010e+001 1.596832e+001
      vertex   2.052704e+001 -2.892019e+001 1.421448e+001
      vertex   2.052704e+001 -2.892019e+001 2.265880e+001
    endloop
  endfacet
  facet normal -9.901969e-001 1.396787e-001 1.038855e-007
    outer loop
      vertex   2.226352e+001 -1.661010e+001 1.596832e+001
      vertex   2.052704e+001 -2.892019e+001 2.265880e+001
      vertex   2.400000e+001 -4.300000e+000 2.700000e+001
    endloop
  endfacet
  facet normal 7.843252e-001 -6.203500e-001 -1.999963e-007
    outer loop
      vertex   3.026352e+001 -1.661010e+001 1.596832e+001
      vertex   4.000000e+001 -4.300000e+000 1.900000e+001
      vertex   2.052704e+001 -2.892019e+001 2.265880e+001
    endloop
  endfacet
  facet normal -7.843252e-001 6.203499e-001 -1.446045e-007
    outer loop
      vertex   3.223308e+001 -1.250794e+001 1.634090e+001
      vertex   2.203289e+001 -2.540430e+001 2.210834e+001
      vertex   3.903143e+001 -3.912602e+000 1.891446e+001
    endloop
  endfacet
  facet normal -7.843465e-001 6.203231e-001 1.461649e-004
    outer loop
      vertex   3.223308e+001 -1.250794e+001 1.634090e+001
      vertex   3.903143e+001 -3.912602e+000 1.891446e+001
      vertex   3.903409e+001 -3.909234e+000 1.890738e+001
    endloop
  endfacet
  facet normal 9.901969e-001 -1.396788e-001 1.522741e-007
    outer loop
      vertex   2.302724e+001 -1.835530e+001 1.640190e+001
      vertex   2.500000e+001 -4.370183e+000 2.597220e+001
      vertex   2.204477e+001 -2.532014e+001 2.227816e+001
    endloop
  endfacet
  facet normal 9.901977e-001 -1.396730e-001 7.182380e-006
    outer loop
      vertex   2.302724e+001 -1.835530e+001 1.640190e+001
      vertex   2.204477e+001 -2.532014e+001 2.227816e+001
      vertex   2.203289e+001 -2.540430e+001 2.210834e+001
    endloop
  endfacet
  facet normal -9.468259e-001 1.514272e-001 -2.838849e-001
    outer loop
      vertex   3.938792e+001 4.954857e+000 2.245546e+001
      vertex   3.903409e+001 -3.909234e+000 1.890738e+001
      vertex   3.903143e+001 -3.912602e+000 1.891446e+001
    endloop
  endfacet
  facet normal -9.467731e-001 1.514835e-001 -2.840308e-001
    outer loop
      vertex   3.938792e+001 4.954857e+000 2.245546e+001
      vertex   4.258040e+001 3.155387e+001 2.600000e+001
      vertex   3.903409e+001 -3.909234e+000 1.890738e+001
    endloop
  endfacet
  facet normal -7.791979e-001 5.815558e-001 -2.337593e-001
    outer loop
      vertex   3.133936e+001 -1.255243e+001 2.306019e+001
      vertex   3.690577e+001 -3.912602e+000 2.600000e+001
      vertex   3.903143e+001 -3.912602e+000 1.891446e+001
    endloop
  endfacet
  facet normal -9.467728e-001 1.514837e-001 -2.840317e-001
    outer loop
      vertex   3.938792e+001 4.954857e+000 2.245546e+001
      vertex   3.903143e+001 -3.912602e+000 1.891446e+001
      vertex   3.690577e+001 -3.912602e+000 2.600000e+001
    endloop
  endfacet
  facet normal -7.791979e-001 5.815558e-001 -2.337594e-001
    outer loop
      vertex   3.133936e+001 -1.255243e+001 2.306019e+001
      vertex   3.903143e+001 -3.912602e+000 1.891446e+001
      vertex   2.203289e+001 -2.540430e+001 2.210834e+001
    endloop
  endfacet
  facet normal 7.791979e-001 -5.815558e-001 2.337595e-001
    outer loop
      vertex   3.270901e+001 -1.250673e+001 2.288626e+001
      vertex   4.000000e+001 -4.300000e+000 1.900000e+001
      vertex   3.760000e+001 -4.300000e+000 2.700000e+001
    endloop
  endfacet
  facet normal 9.467727e-001 -1.514837e-001 2.840320e-001
    outer loop
      vertex   4.053333e+001 9.033333e+000 2.433333e+001
      vertex   3.760000e+001 -4.300000e+000 2.700000e+001
      vertex   4.000000e+001 -4.300000e+000 1.900000e+001
    endloop
  endfacet
  facet normal 7.791979e-001 -5.815557e-001 2.337596e-001
    outer loop
      vertex   3.270901e+001 -1.250673e+001 2.288626e+001
      vertex   2.052704e+001 -2.892019e+001 2.265880e+001
      vertex   4.000000e+001 -4.300000e+000 1.900000e+001
    endloop
  endfacet
  facet normal 9.467727e-001 -1.514837e-001 2.840319e-001
    outer loop
      vertex   4.053333e+001 9.033333e+000 2.433333e+001
      vertex   4.000000e+001 -4.300000e+000 1.900000e+001
      vertex   4.400000e+001 3.570000e+001 2.700000e+001
    endloop
  endfacet
  facet normal -7.791955e-001 5.815548e-001 -2.337701e-001
    outer loop
      vertex   3.133936e+001 -1.255243e+001 2.306019e+001
      vertex   2.203289e+001 -2.540430e+001 2.210834e+001
      vertex   2.204477e+001 -2.532014e+001 2.227816e+001
    endloop
  endfacet
  facet normal -7.791977e-001 5.815558e-001 -2.337600e-001
    outer loop
      vertex   3.133936e+001 -1.255243e+001 2.306019e+001
      vertex   2.204477e+001 -2.532014e+001 2.227816e+001
      vertex   3.668193e+001 -4.212512e+000 2.600000e+001
    endloop
  endfacet
  facet normal -6.151792e-008 1.736482e-001 -9.848077e-001
    outer loop
      vertex   3.668193e+001 -4.212512e+000 2.600000e+001
      vertex   2.204477e+001 -2.532014e+001 2.227816e+001
      vertex   2.500000e+001 -4.370183e+000 2.597220e+001
    endloop
  endfacet
  facet normal -9.467728e-001 1.514836e-001 -2.840320e-001
    outer loop
      vertex   3.938792e+001 4.954857e+000 2.245546e+001
      vertex   3.690577e+001 -3.912602e+000 2.600000e+001
      vertex   4.258040e+001 3.155387e+001 2.600000e+001
    endloop
  endfacet
  facet normal -1.346364e-007 -1.736481e-001 9.848077e-001
    outer loop
      vertex   2.737568e+001 -1.250673e+001 2.555293e+001
      vertex   2.400000e+001 -4.300000e+000 2.700000e+001
      vertex   2.052704e+001 -2.892019e+001 2.265880e+001
    endloop
  endfacet
  facet normal 1.346364e-007 -1.736482e-001 9.848077e-001
    outer loop
      vertex   2.737568e+001 -1.250673e+001 2.555293e+001
      vertex   2.052704e+001 -2.892019e+001 2.265880e+001
      vertex   3.760000e+001 -4.300000e+000 2.700000e+001
    endloop
  endfacet
  facet normal 7.791981e-001 -5.815557e-001 2.337593e-001
    outer loop
      vertex   3.270901e+001 -1.250673e+001 2.288626e+001
      vertex   3.760000e+001 -4.300000e+000 2.700000e+001
      vertex   2.052704e+001 -2.892019e+001 2.265880e+001
    endloop
  endfacet
  facet normal -7.791955e-001 5.815564e-001 -2.337657e-001
    outer loop
      vertex   3.133936e+001 -1.255243e+001 2.306019e+001
      vertex   3.668193e+001 -4.212512e+000 2.600000e+001
      vertex   3.690577e+001 -3.912602e+000 2.600000e+001
    endloop
  endfacet
  facet normal 9.467726e-001 -1.514837e-001 2.840321e-001
    outer loop
      vertex   4.053333e+001 9.033333e+000 2.433333e+001
      vertex   4.400000e+001 3.570000e+001 2.700000e+001
      vertex   3.760000e+001 -4.300000e+000 2.700000e+001
    endloop
  endfacet
  facet normal 0.000000e+000 -1.736481e-001 9.848078e-001
    outer loop
      vertex   2.737568e+001 -1.250673e+001 2.555293e+001
      vertex   3.760000e+001 -4.300000e+000 2.700000e+001
      vertex   2.400000e+001 -4.300000e+000 2.700000e+001
    endloop
  endfacet
  facet normal 0.000000e+000 1.736463e-001 -9.848080e-001
    outer loop
      vertex   3.668193e+001 -4.212512e+000 2.600000e+001
      vertex   2.500000e+001 -4.370183e+000 2.597220e+001
      vertex   2.500000e+001 -4.212512e+000 2.600000e+001
    endloop
  endfacet
  facet normal 0.000000e+000 0.000000e+000 -1.000000e+000
    outer loop
      vertex   3.486052e+001 1.510271e+001 2.600000e+001
      vertex   2.500000e+001 3.570000e+001 2.600000e+001
      vertex   4.299501e+001 3.570000e+001 2.600000e+001
    endloop
  endfacet
  facet normal 0.000000e+000 0.000000e+000 -1.000000e+000
    outer loop
      vertex   3.486052e+001 1.510271e+001 2.600000e+001
      vertex   2.500000e+001 -4.212512e+000 2.600000e+001
      vertex   2.500000e+001 3.570000e+001 2.600000e+001
    endloop
  endfacet
  facet normal 0.000000e+000 1.000000e+000 -0.000000e+000
    outer loop
      vertex   4.299501e+001 3.570000e+001 2.600000e+001
      vertex   2.500000e+001 3.570000e+001 2.600000e+001
      vertex   2.400000e+001 3.570000e+001 2.700000e+001
    endloop
  endfacet
  facet normal 0.000000e+000 0.000000e+000 -1.000000e+000
    outer loop
      vertex   3.486052e+001 1.510271e+001 2.600000e+001
      vertex   3.668193e+001 -4.212512e+000 2.600000e+001
      vertex   2.500000e+001 -4.212512e+000 2.600000e+001
    endloop
  endfacet
  facet normal -0.000000e+000 0.000000e+000 -1.000000e+000
    outer loop
      vertex   3.486052e+001 1.510271e+001 2.600000e+001
      vertex   3.690577e+001 -3.912602e+000 2.600000e+001
      vertex   3.668193e+001 -4.212512e+000 2.600000e+001
    endloop
  endfacet
  facet normal 0.000000e+000 1.000000e+000 -0.000000e+000
    outer loop
      vertex   4.400000e+001 3.570000e+001 2.700000e+001
      vertex   4.299501e+001 3.570000e+001 2.600000e+001
      vertex   2.400000e+001 3.570000e+001 2.700000e+001
    endloop
  endfacet
  facet normal 0.000000e+000 0.000000e+000 -1.000000e+000
    outer loop
      vertex   3.486052e+001 1.510271e+001 2.600000e+001
      vertex   4.299501e+001 3.570000e+001 2.600000e+001
      vertex   4.258040e+001 3.155387e+001 2.600000e+001
    endloop
  endfacet
  facet normal 0.000000e+000 0.000000e+000 -1.000000e+000
    outer loop
      vertex   3.486052e+001 1.510271e+001 2.600000e+001
      vertex   4.258040e+001 3.155387e+001 2.600000e+001
      vertex   3.690577e+001 -3.912602e+000 2.600000e+001
    endloop
  endfacet
  facet normal 0.000000e+000 0.000000e+000 1.000000e+000
    outer loop
      vertex   3.240000e+001 1.570000e+001 2.700000e+001
      vertex   4.400000e+001 3.570000e+001 2.700000e+001
      vertex   2.400000e+001 3.570000e+001 2.700000e+001
    endloop
  endfacet
  facet normal 0.000000e+000 0.000000e+000 1.000000e+000
    outer loop
      vertex   3.240000e+001 1.570000e+001 2.700000e+001
      vertex   2.400000e+001 3.570000e+001 2.700000e+001
      vertex   2.400000e+001 -4.300000e+000 2.700000e+001
    endloop
  endfacet
  facet normal 0.000000e+000 -0.000000e+000 1.000000e+000
    outer loop
      vertex   3.240000e+001 1.570000e+001 2.700000e+001
      vertex   3.760000e+001 -4.300000e+000 2.700000e+001
      vertex   4.400000e+001 3.570000e+001 2.700000e+001
    endloop
  endfacet
  facet normal 0.000000e+000 0.000000e+000 1.000000e+000
    outer loop
      vertex   3.240000e+001 1.570000e+001 2.700000e+001
      vertex   2.400000e+001 -4.300000e+000 2.700000e+001
      vertex   3.760000e+001 -4.300000e+000 2.700000e+001
    endloop
  endfacet
endsolid
