solid ascii
  facet normal -2.391454e-001 8.704180e-002 -9.670745e-001
    outer loop
      vertex   4.404305e+001 6.789165e+001 -1.968107e+000
      vertex   5.715267e+001 7.925381e+001 -4.187297e+000
      vertex   4.689206e+001 5.106303e+001 -4.187297e+000
    endloop
  endfacet
  facet normal 1.183972e-007 -4.999999e-001 -8.660253e-001
    outer loop
      vertex   5.378605e+001 5.115556e-001 5.508618e-001
      vertex   4.693741e+001 -1.590191e+001 1.002718e+001
      vertex   5.041037e+001 8.718287e+000 -4.187297e+000
    endloop
  endfacet
  facet normal 0.000000e+000 -5.000000e-001 -8.660254e-001
    outer loop
      vertex   5.378605e+001 5.115556e-001 5.508618e-001
      vertex   5.041037e+001 8.718287e+000 -4.187297e+000
      vertex   6.401038e+001 8.718287e+000 -4.187297e+000
    endloop
  endfacet
  facet normal 9.467724e-001 -1.514835e-001 -2.840332e-001
    outer loop
      vertex   6.780410e+001 2.866999e+001 -2.182468e+000
      vertex   6.401038e+001 8.718287e+000 -4.187297e+000
      vertex   7.039492e+001 4.862170e+001 -4.187297e+000
    endloop
  endfacet
  facet normal 9.467304e-001 -1.514917e-001 -2.841687e-001
    outer loop
      vertex   6.780410e+001 2.866999e+001 -2.182468e+000
      vertex   7.039492e+001 4.862170e+001 -4.187297e+000
      vertex   7.040072e+001 4.862170e+001 -4.167980e+000
    endloop
  endfacet
  facet normal 0.000000e+000 0.000000e+000 -1.000000e+000
    outer loop
      vertex   7.039492e+001 4.862170e+001 -4.187297e+000
      vertex   4.981270e+001 5.000000e+001 -4.187297e+000
      vertex   4.689206e+001 5.106303e+001 -4.187297e+000
    endloop
  endfacet
  facet normal 9.467727e-001 -1.514837e-001 -2.840320e-001
    outer loop
      vertex   6.780410e+001 2.866999e+001 -2.182468e+000
      vertex   6.641038e+001 8.718287e+000 3.812703e+000
      vertex   6.401038e+001 8.718287e+000 -4.187297e+000
    endloop
  endfacet
  facet normal 9.848077e-001 1.736481e-001 -2.430543e-007
    outer loop
      vertex   6.797560e+001 6.245730e+001 9.312702e+000
      vertex   7.039816e+001 4.871829e+001 -4.187297e+000
      vertex   6.555304e+001 7.619632e+001 -4.187297e+000
    endloop
  endfacet
  facet normal 9.848077e-001 1.736483e-001 -0.000000e+000
    outer loop
      vertex   6.797560e+001 6.245730e+001 9.312702e+000
      vertex   6.555304e+001 7.619632e+001 -4.187297e+000
      vertex   6.555304e+001 7.619632e+001 2.281270e+001
    endloop
  endfacet
  facet normal -1.000000e+000 0.000000e+000 -0.000000e+000
    outer loop
      vertex   5.041037e+001 2.867550e+001 9.312702e+000
      vertex   5.041037e+001 4.863271e+001 2.281270e+001
      vertex   5.041037e+001 4.863271e+001 -4.187297e+000
    endloop
  endfacet
  facet normal 9.848078e-001 1.736479e-001 0.000000e+000
    outer loop
      vertex   6.797560e+001 6.245730e+001 9.312702e+000
      vertex   7.039816e+001 4.871829e+001 2.281270e+001
      vertex   7.039816e+001 4.871829e+001 -4.187297e+000
    endloop
  endfacet
  facet normal 0.000000e+000 -1.000000e+000 0.000000e+000
    outer loop
      vertex   7.040072e+001 4.862170e+001 2.279339e+001
      vertex   7.040072e+001 4.862170e+001 -4.167980e+000
      vertex   7.041519e+001 4.862170e+001 -4.187297e+000
    endloop
  endfacet
  facet normal -9.162843e-001 -4.005283e-001 -0.000000e+000
    outer loop
      vertex   5.011154e+001 4.931636e+001 9.312702e+000
      vertex   4.981270e+001 5.000000e+001 2.281270e+001
      vertex   4.981270e+001 5.000000e+001 -4.187297e+000
    endloop
  endfacet
  facet normal 0.000000e+000 -1.000000e+000 0.000000e+000
    outer loop
      vertex   7.040072e+001 4.862170e+001 -4.167980e+000
      vertex   7.039492e+001 4.862170e+001 -4.187297e+000
      vertex   7.041519e+001 4.862170e+001 -4.187297e+000
    endloop
  endfacet
  facet normal -1.000000e+000 0.000000e+000 0.000000e+000
    outer loop
      vertex   5.041037e+001 2.867550e+001 9.312702e+000
      vertex   5.041037e+001 8.718287e+000 -4.187297e+000
      vertex   5.041037e+001 8.718287e+000 2.281270e+001
    endloop
  endfacet
  facet normal 9.950295e-001 -9.958023e-002 -1.407381e-008
    outer loop
      vertex   7.040816e+001 4.869618e+001 9.312702e+000
      vertex   7.040595e+001 4.867407e+001 -4.178455e+000
      vertex   7.041038e+001 4.871829e+001 -4.187297e+000
    endloop
  endfacet
  facet normal 9.950303e-001 -9.957170e-002 0.000000e+000
    outer loop
      vertex   7.040816e+001 4.869618e+001 9.312702e+000
      vertex   7.041038e+001 4.871829e+001 -4.187297e+000
      vertex   7.041038e+001 4.871829e+001 2.281270e+001
    endloop
  endfacet
  facet normal -9.162843e-001 -4.005283e-001 0.000000e+000
    outer loop
      vertex   5.011154e+001 4.931636e+001 9.312702e+000
      vertex   5.041037e+001 4.863271e+001 -4.187297e+000
      vertex   5.041037e+001 4.863271e+001 2.281270e+001
    endloop
  endfacet
  facet normal -3.420204e-001 -9.396926e-001 0.000000e+000
    outer loop
      vertex   4.835238e+001 5.053151e+001 9.312702e+000
      vertex   4.689206e+001 5.106303e+001 -4.187297e+000
      vertex   4.981270e+001 5.000000e+001 -4.187297e+000
    endloop
  endfacet
  facet normal -3.420204e-001 -9.396926e-001 0.000000e+000
    outer loop
      vertex   4.835238e+001 5.053151e+001 9.312702e+000
      vertex   4.981270e+001 5.000000e+001 -4.187297e+000
      vertex   4.981270e+001 5.000000e+001 2.281270e+001
    endloop
  endfacet
  facet normal 0.000000e+000 0.000000e+000 -1.000000e+000
    outer loop
      vertex   7.039816e+001 4.871829e+001 -4.187297e+000
      vertex   7.040456e+001 4.868196e+001 -4.187297e+000
      vertex   4.689206e+001 5.106303e+001 -4.187297e+000
    endloop
  endfacet
  facet normal 3.420204e-001 9.396926e-001 3.081898e-007
    outer loop
      vertex   6.135285e+001 7.772506e+001 9.312702e+000
      vertex   6.555304e+001 7.619632e+001 -4.187297e+000
      vertex   5.715267e+001 7.925381e+001 -4.187297e+000
    endloop
  endfacet
  facet normal -2.391455e-001 8.704177e-002 -9.670746e-001
    outer loop
      vertex   4.404305e+001 6.789165e+001 -1.968107e+000
      vertex   4.689206e+001 5.106303e+001 -4.187297e+000
      vertex   3.440965e+001 5.715353e+001 -5.523754e-001
    endloop
  endfacet
  facet normal -1.000000e+000 0.000000e+000 0.000000e+000
    outer loop
      vertex   5.041037e+001 2.867550e+001 9.312702e+000
      vertex   5.041037e+001 4.863271e+001 -4.187297e+000
      vertex   5.041037e+001 8.718287e+000 -4.187297e+000
    endloop
  endfacet
  facet normal -9.162843e-001 -4.005283e-001 0.000000e+000
    outer loop
      vertex   5.011154e+001 4.931636e+001 9.312702e+000
      vertex   4.981270e+001 5.000000e+001 -4.187297e+000
      vertex   5.041037e+001 4.863271e+001 -4.187297e+000
    endloop
  endfacet
  facet normal -2.391454e-001 8.704188e-002 -9.670745e-001
    outer loop
      vertex   4.404305e+001 6.789165e+001 -1.968107e+000
      vertex   3.771780e+001 8.409621e+001 1.054545e+000
      vertex   5.715267e+001 7.925381e+001 -4.187297e+000
    endloop
  endfacet
  facet normal 2.417691e-001 9.703338e-001 0.000000e+000
    outer loop
      vertex   4.743523e+001 8.167501e+001 1.062316e+001
      vertex   5.715267e+001 7.925381e+001 -4.187297e+000
      vertex   3.771780e+001 8.409621e+001 1.054545e+000
    endloop
  endfacet
  facet normal 2.417691e-001 9.703338e-001 0.000000e+000
    outer loop
      vertex   4.743523e+001 8.167501e+001 1.062316e+001
      vertex   5.715267e+001 7.925381e+001 2.281270e+001
      vertex   5.715267e+001 7.925381e+001 -4.187297e+000
    endloop
  endfacet
  facet normal -4.385125e-001 -8.987252e-001 -6.543955e-008
    outer loop
      vertex   4.065086e+001 5.410828e+001 1.022143e+001
      vertex   3.440965e+001 5.715353e+001 -5.523754e-001
      vertex   4.689206e+001 5.106303e+001 -4.187297e+000
    endloop
  endfacet
  facet normal -9.901968e-001 1.396786e-001 0.000000e+000
    outer loop
      vertex   4.867389e+001 -3.591811e+000 1.178102e+001
      vertex   5.041037e+001 8.718287e+000 2.281270e+001
      vertex   5.041037e+001 8.718287e+000 -4.187297e+000
    endloop
  endfacet
  facet normal 9.847929e-001 1.737321e-001 -0.000000e+000
    outer loop
      vertex   7.041519e+001 4.862170e+001 2.281270e+001
      vertex   7.041519e+001 4.862170e+001 -4.187297e+000
      vertex   7.040595e+001 4.867407e+001 -4.178455e+000
    endloop
  endfacet
  facet normal -4.385123e-001 -8.987252e-001 0.000000e+000
    outer loop
      vertex   4.065086e+001 5.410828e+001 1.022143e+001
      vertex   4.689206e+001 5.106303e+001 -4.187297e+000
      vertex   4.689206e+001 5.106303e+001 2.281270e+001
    endloop
  endfacet
  facet normal 0.000000e+000 -1.000000e+000 0.000000e+000
    outer loop
      vertex   7.041519e+001 4.862170e+001 2.281270e+001
      vertex   7.040072e+001 4.862170e+001 2.279339e+001
      vertex   7.041519e+001 4.862170e+001 -4.187297e+000
    endloop
  endfacet
  facet normal 0.000000e+000 0.000000e+000 -1.000000e+000
    outer loop
      vertex   5.041037e+001 4.863271e+001 -4.187297e+000
      vertex   6.401038e+001 8.718287e+000 -4.187297e+000
      vertex   5.041037e+001 8.718287e+000 -4.187297e+000
    endloop
  endfacet
  facet normal 9.848017e-001 1.736822e-001 3.050893e-004
    outer loop
      vertex   7.040595e+001 4.867407e+001 -4.178455e+000
      vertex   7.041519e+001 4.862170e+001 -4.187297e+000
      vertex   7.040456e+001 4.868196e+001 -4.187297e+000
    endloop
  endfacet
  facet normal 0.000000e+000 0.000000e+000 -1.000000e+000
    outer loop
      vertex   6.555304e+001 7.619632e+001 -4.187297e+000
      vertex   7.039816e+001 4.871829e+001 -4.187297e+000
      vertex   5.715267e+001 7.925381e+001 -4.187297e+000
    endloop
  endfacet
  facet normal 0.000000e+000 0.000000e+000 -1.000000e+000
    outer loop
      vertex   5.715267e+001 7.925381e+001 -4.187297e+000
      vertex   7.039816e+001 4.871829e+001 -4.187297e+000
      vertex   4.689206e+001 5.106303e+001 -4.187297e+000
    endloop
  endfacet
  facet normal 0.000000e+000 0.000000e+000 -1.000000e+000
    outer loop
      vertex   7.041038e+001 4.871829e+001 -4.187297e+000
      vertex   7.040456e+001 4.868196e+001 -4.187297e+000
      vertex   7.039816e+001 4.871829e+001 -4.187297e+000
    endloop
  endfacet
  facet normal 3.420195e-001 9.396929e-001 0.000000e+000
    outer loop
      vertex   6.135285e+001 7.772506e+001 9.312702e+000
      vertex   6.555304e+001 7.619632e+001 2.281270e+001
      vertex   6.555304e+001 7.619632e+001 -4.187297e+000
    endloop
  endfacet
  facet normal 7.369901e-001 -6.387188e-001 -2.210971e-001
    outer loop
      vertex   5.911939e+001 5.115556e-001 3.217528e+000
      vertex   4.693741e+001 -1.590191e+001 1.002718e+001
      vertex   6.401038e+001 8.718287e+000 -4.187297e+000
    endloop
  endfacet
  facet normal 0.000000e+000 0.000000e+000 -1.000000e+000
    outer loop
      vertex   7.039492e+001 4.862170e+001 -4.187297e+000
      vertex   5.041037e+001 4.863271e+001 -4.187297e+000
      vertex   4.981270e+001 5.000000e+001 -4.187297e+000
    endloop
  endfacet
  facet normal 0.000000e+000 1.000000e+000 0.000000e+000
    outer loop
      vertex   7.040427e+001 4.871829e+001 9.312702e+000
      vertex   7.041038e+001 4.871829e+001 2.281270e+001
      vertex   7.041038e+001 4.871829e+001 -4.187297e+000
    endloop
  endfacet
  facet normal 9.467357e-001 -1.517233e-001 -2.840274e-001
    outer loop
      vertex   7.040697e+001 4.869144e+001 -4.184350e+000
      vertex   7.040595e+001 4.867407e+001 -4.178455e+000
      vertex   7.040456e+001 4.868196e+001 -4.187297e+000
    endloop
  endfacet
  facet normal 7.369900e-001 -6.387188e-001 -2.210971e-001
    outer loop
      vertex   5.911939e+001 5.115556e-001 3.217528e+000
      vertex   6.401038e+001 8.718287e+000 -4.187297e+000
      vertex   6.641038e+001 8.718287e+000 3.812703e+000
    endloop
  endfacet
  facet normal -1.183972e-007 -4.999999e-001 -8.660254e-001
    outer loop
      vertex   5.378605e+001 5.115556e-001 5.508618e-001
      vertex   6.401038e+001 8.718287e+000 -4.187297e+000
      vertex   4.693741e+001 -1.590191e+001 1.002718e+001
    endloop
  endfacet
  facet normal 0.000000e+000 1.000000e+000 0.000000e+000
    outer loop
      vertex   7.040427e+001 4.871829e+001 9.312702e+000
      vertex   7.041038e+001 4.871829e+001 -4.187297e+000
      vertex   7.039816e+001 4.871829e+001 -4.187297e+000
    endloop
  endfacet
  facet normal 0.000000e+000 1.000000e+000 0.000000e+000
    outer loop
      vertex   7.040427e+001 4.871829e+001 9.312702e+000
      vertex   7.039816e+001 4.871829e+001 -4.187297e+000
      vertex   7.039816e+001 4.871829e+001 2.281270e+001
    endloop
  endfacet
  facet normal 9.465813e-001 -1.514848e-001 -2.846685e-001
    outer loop
      vertex   7.040697e+001 4.869144e+001 -4.184350e+000
      vertex   7.040456e+001 4.868196e+001 -4.187297e+000
      vertex   7.041038e+001 4.871829e+001 -4.187297e+000
    endloop
  endfacet
  facet normal 9.471352e-001 -1.513597e-001 -2.828875e-001
    outer loop
      vertex   7.040697e+001 4.869144e+001 -4.184350e+000
      vertex   7.041038e+001 4.871829e+001 -4.187297e+000
      vertex   7.040595e+001 4.867407e+001 -4.178455e+000
    endloop
  endfacet
  facet normal 0.000000e+000 0.000000e+000 -1.000000e+000
    outer loop
      vertex   7.040456e+001 4.868196e+001 -4.187297e+000
      vertex   7.041519e+001 4.862170e+001 -4.187297e+000
      vertex   4.689206e+001 5.106303e+001 -4.187297e+000
    endloop
  endfacet
  facet normal 0.000000e+000 0.000000e+000 -1.000000e+000
    outer loop
      vertex   7.041519e+001 4.862170e+001 -4.187297e+000
      vertex   7.039492e+001 4.862170e+001 -4.187297e+000
      vertex   4.689206e+001 5.106303e+001 -4.187297e+000
    endloop
  endfacet
  facet normal 0.000000e+000 0.000000e+000 -1.000000e+000
    outer loop
      vertex   7.039492e+001 4.862170e+001 -4.187297e+000
      vertex   6.401038e+001 8.718287e+000 -4.187297e+000
      vertex   5.041037e+001 4.863271e+001 -4.187297e+000
    endloop
  endfacet
  facet normal 3.420213e-001 9.396922e-001 -0.000000e+000
    outer loop
      vertex   6.135285e+001 7.772506e+001 9.312702e+000
      vertex   5.715267e+001 7.925381e+001 -4.187297e+000
      vertex   5.715267e+001 7.925381e+001 2.281270e+001
    endloop
  endfacet
  facet normal -3.420204e-001 -9.396926e-001 -0.000000e+000
    outer loop
      vertex   4.835238e+001 5.053151e+001 9.312702e+000
      vertex   4.689206e+001 5.106303e+001 2.281270e+001
      vertex   4.689206e+001 5.106303e+001 -4.187297e+000
    endloop
  endfacet
  facet normal -9.901969e-001 1.396786e-001 1.731424e-008
    outer loop
      vertex   4.867389e+001 -3.591811e+000 1.178102e+001
      vertex   5.041037e+001 8.718287e+000 -4.187297e+000
      vertex   4.693741e+001 -1.590191e+001 1.002718e+001
    endloop
  endfacet
  facet normal 9.847929e-001 1.737321e-001 0.000000e+000
    outer loop
      vertex   7.040595e+001 4.867407e+001 2.280386e+001
      vertex   7.041519e+001 4.862170e+001 2.281270e+001
      vertex   7.040595e+001 4.867407e+001 -4.178455e+000
    endloop
  endfacet
  facet normal 9.950286e-001 -9.958872e-002 0.000000e+000
    outer loop
      vertex   7.040816e+001 4.869618e+001 9.312702e+000
      vertex   7.040595e+001 4.867407e+001 2.280386e+001
      vertex   7.040595e+001 4.867407e+001 -4.178455e+000
    endloop
  endfacet
  facet normal 9.950372e-001 -9.950373e-002 0.000000e+000
    outer loop
      vertex   6.840555e+001 2.866999e+001 9.312702e+000
      vertex   7.040072e+001 4.862170e+001 -4.167980e+000
      vertex   7.040072e+001 4.862170e+001 2.279339e+001
    endloop
  endfacet
  facet normal 9.950372e-001 -9.950373e-002 0.000000e+000
    outer loop
      vertex   6.840555e+001 2.866999e+001 9.312702e+000
      vertex   6.641038e+001 8.718287e+000 3.812703e+000
      vertex   7.040072e+001 4.862170e+001 -4.167980e+000
    endloop
  endfacet
  facet normal 9.467728e-001 -1.514836e-001 -2.840315e-001
    outer loop
      vertex   6.780410e+001 2.866999e+001 -2.182468e+000
      vertex   7.040072e+001 4.862170e+001 -4.167980e+000
      vertex   6.641038e+001 8.718287e+000 3.812703e+000
    endloop
  endfacet
  facet normal -9.950372e-001 9.950384e-002 -1.079580e-007
    outer loop
      vertex   6.758754e+001 3.053982e+001 8.550900e+000
      vertex   6.899078e+001 4.457215e+001 -3.187297e+000
      vertex   6.544793e+001 9.143741e+000 3.898386e+000
    endloop
  endfacet
  facet normal -8.571652e-001 5.150416e-001 0.000000e+000
    outer loop
      vertex   6.489818e+001 7.510645e+001 9.312702e+000
      vertex   6.476799e+001 7.488978e+001 -3.187297e+000
      vertex   6.476799e+001 7.488978e+001 2.181270e+001
    endloop
  endfacet
  facet normal 0.000000e+000 0.000000e+000 1.000000e+000
    outer loop
      vertex   6.332223e+001 9.143741e+000 -3.187297e+000
      vertex   5.141037e+001 8.986236e+000 -3.187297e+000
      vertex   6.318573e+001 8.986236e+000 -3.187297e+000
    endloop
  endfacet
  facet normal -8.571718e-001 5.150305e-001 2.617447e-007
    outer loop
      vertex   6.489818e+001 7.510645e+001 9.312702e+000
      vertex   6.502836e+001 7.532311e+001 -3.187297e+000
      vertex   6.476799e+001 7.488978e+001 -3.187297e+000
    endloop
  endfacet
  facet normal -8.571785e-001 5.150195e-001 0.000000e+000
    outer loop
      vertex   6.489818e+001 7.510645e+001 9.312702e+000
      vertex   6.502836e+001 7.532311e+001 2.181270e+001
      vertex   6.502836e+001 7.532311e+001 -3.187297e+000
    endloop
  endfacet
  facet normal 0.000000e+000 0.000000e+000 1.000000e+000
    outer loop
      vertex   5.141037e+001 4.862170e+001 -3.187297e+000
      vertex   5.141037e+001 8.986236e+000 -3.187297e+000
      vertex   6.332223e+001 9.143741e+000 -3.187297e+000
    endloop
  endfacet
  facet normal -9.950372e-001 9.950367e-002 0.000000e+000
    outer loop
      vertex   6.758754e+001 3.053982e+001 8.550900e+000
      vertex   6.939719e+001 4.863630e+001 2.181270e+001
      vertex   6.939719e+001 4.863630e+001 -3.187297e+000
    endloop
  endfacet
  facet normal -9.950373e-001 9.950280e-002 -1.372519e-006
    outer loop
      vertex   6.758754e+001 3.053982e+001 8.550900e+000
      vertex   6.939719e+001 4.863630e+001 -3.187297e+000
      vertex   6.899078e+001 4.457215e+001 -3.187297e+000
    endloop
  endfacet
  facet normal 0.000000e+000 -1.000000e+000 0.000000e+000
    outer loop
      vertex   5.145846e+001 4.862170e+001 9.312702e+000
      vertex   5.141037e+001 4.862170e+001 -3.187297e+000
      vertex   5.150655e+001 4.862170e+001 -3.187297e+000
    endloop
  endfacet
  facet normal 0.000000e+000 -1.000000e+000 0.000000e+000
    outer loop
      vertex   5.145846e+001 4.862170e+001 9.312702e+000
      vertex   5.150655e+001 4.862170e+001 -3.187297e+000
      vertex   5.150655e+001 4.862170e+001 2.181270e+001
    endloop
  endfacet
  facet normal -9.467728e-001 1.514837e-001 2.840315e-001
    outer loop
      vertex   6.592031e+001 2.095321e+001 -8.254028e-001
      vertex   6.544793e+001 9.143741e+000 3.898386e+000
      vertex   6.899078e+001 4.457215e+001 -3.187297e+000
    endloop
  endfacet
  facet normal -9.467728e-001 1.514837e-001 2.840314e-001
    outer loop
      vertex   6.592031e+001 2.095321e+001 -8.254028e-001
      vertex   6.332223e+001 9.143741e+000 -3.187297e+000
      vertex   6.544793e+001 9.143741e+000 3.898386e+000
    endloop
  endfacet
  facet normal -9.848077e-001 -1.736481e-001 0.000000e+000
    outer loop
      vertex   6.708259e+001 6.176304e+001 9.312702e+000
      vertex   6.939719e+001 4.863630e+001 -3.187297e+000
      vertex   6.939719e+001 4.863630e+001 2.181270e+001
    endloop
  endfacet
  facet normal -9.848077e-001 -1.736481e-001 3.434281e-008
    outer loop
      vertex   6.708259e+001 6.176304e+001 9.312702e+000
      vertex   6.476799e+001 7.488978e+001 -3.187297e+000
      vertex   6.939719e+001 4.863630e+001 -3.187297e+000
    endloop
  endfacet
  facet normal -9.467729e-001 1.514837e-001 2.840314e-001
    outer loop
      vertex   6.592031e+001 2.095321e+001 -8.254028e-001
      vertex   6.899078e+001 4.457215e+001 -3.187297e+000
      vertex   6.332223e+001 9.143741e+000 -3.187297e+000
    endloop
  endfacet
  facet normal -0.000000e+000 0.000000e+000 1.000000e+000
    outer loop
      vertex   5.150655e+001 4.862170e+001 -3.187297e+000
      vertex   5.141037e+001 4.862170e+001 -3.187297e+000
      vertex   6.332223e+001 9.143741e+000 -3.187297e+000
    endloop
  endfacet
  facet normal 9.396926e-001 -3.420202e-001 4.257475e-008
    outer loop
      vertex   5.869003e+001 7.763007e+001 -3.187297e+000
      vertex   5.048155e+001 5.507745e+001 4.812703e+000
      vertex   4.911347e+001 5.131868e+001 -3.187297e+000
    endloop
  endfacet
  facet normal 9.396926e-001 -3.420202e-001 -2.861023e-007
    outer loop
      vertex   5.732195e+001 7.387130e+001 4.812703e+000
      vertex   5.048155e+001 5.507745e+001 4.812703e+000
      vertex   5.869003e+001 7.763007e+001 -3.187297e+000
    endloop
  endfacet
  facet normal 3.420229e-001 9.396917e-001 -0.000000e+000
    outer loop
      vertex   4.972543e+001 5.109594e+001 9.312702e+000
      vertex   4.911347e+001 5.131868e+001 -3.187297e+000
      vertex   4.911347e+001 5.131868e+001 2.181270e+001
    endloop
  endfacet
  facet normal 1.000000e+000 0.000000e+000 -0.000000e+000
    outer loop
      vertex   5.141037e+001 2.205527e+001 9.340606e+000
      vertex   5.141037e+001 4.862170e+001 -3.187297e+000
      vertex   5.141037e+001 4.862170e+001 2.181270e+001
    endloop
  endfacet
  facet normal 3.420196e-001 9.396929e-001 0.000000e+000
    outer loop
      vertex   4.972543e+001 5.109594e+001 9.312702e+000
      vertex   5.033738e+001 5.087321e+001 2.181270e+001
      vertex   5.033738e+001 5.087321e+001 -3.187297e+000
    endloop
  endfacet
  facet normal 3.420213e-001 9.396923e-001 9.152627e-008
    outer loop
      vertex   4.972543e+001 5.109594e+001 9.312702e+000
      vertex   5.033738e+001 5.087321e+001 -3.187297e+000
      vertex   4.911347e+001 5.131868e+001 -3.187297e+000
    endloop
  endfacet
  facet normal 1.000000e+000 0.000000e+000 0.000000e+000
    outer loop
      vertex   5.141037e+001 2.205527e+001 9.340606e+000
      vertex   5.141037e+001 8.986236e+000 -3.187297e+000
      vertex   5.141037e+001 4.862170e+001 -3.187297e+000
    endloop
  endfacet
  facet normal 9.162843e-001 4.005286e-001 0.000000e+000
    outer loop
      vertex   5.097551e+001 4.983656e+001 9.312702e+000
      vertex   5.150655e+001 4.862170e+001 2.181270e+001
      vertex   5.150655e+001 4.862170e+001 -3.187297e+000
    endloop
  endfacet
  facet normal 9.162843e-001 4.005286e-001 0.000000e+000
    outer loop
      vertex   5.097551e+001 4.983656e+001 9.312702e+000
      vertex   5.150655e+001 4.862170e+001 -3.187297e+000
      vertex   5.044447e+001 5.105143e+001 -3.187297e+000
    endloop
  endfacet
  facet normal 9.162843e-001 4.005286e-001 -0.000000e+000
    outer loop
      vertex   5.097551e+001 4.983656e+001 9.312702e+000
      vertex   5.044447e+001 5.105143e+001 -3.187297e+000
      vertex   5.044447e+001 5.105143e+001 2.181270e+001
    endloop
  endfacet
  facet normal 9.396926e-001 -3.420201e-001 0.000000e+000
    outer loop
      vertex   5.048155e+001 5.507745e+001 1.881270e+001
      vertex   4.911347e+001 5.131868e+001 -3.187297e+000
      vertex   5.048155e+001 5.507745e+001 4.812703e+000
    endloop
  endfacet
  facet normal 0.000000e+000 -1.000000e+000 0.000000e+000
    outer loop
      vertex   5.145846e+001 4.862170e+001 9.312702e+000
      vertex   5.141037e+001 4.862170e+001 2.181270e+001
      vertex   5.141037e+001 4.862170e+001 -3.187297e+000
    endloop
  endfacet
  facet normal 9.396926e-001 -3.420201e-001 0.000000e+000
    outer loop
      vertex   4.911347e+001 5.131868e+001 2.181270e+001
      vertex   4.911347e+001 5.131868e+001 -3.187297e+000
      vertex   5.048155e+001 5.507745e+001 1.881270e+001
    endloop
  endfacet
  facet normal 9.396927e-001 -3.420198e-001 0.000000e+000
    outer loop
      vertex   5.732195e+001 7.387130e+001 1.881270e+001
      vertex   5.732195e+001 7.387130e+001 4.812703e+000
      vertex   5.869003e+001 7.763007e+001 -3.187297e+000
    endloop
  endfacet
  facet normal 9.396927e-001 -3.420198e-001 0.000000e+000
    outer loop
      vertex   5.869003e+001 7.763007e+001 2.181270e+001
      vertex   5.732195e+001 7.387130e+001 1.881270e+001
      vertex   5.869003e+001 7.763007e+001 -3.187297e+000
    endloop
  endfacet
  facet normal -0.000000e+000 5.000018e-001 8.660243e-001
    outer loop
      vertex   6.318573e+001 8.986236e+000 -3.187297e+000
      vertex   5.141037e+001 8.986236e+000 -3.187297e+000
      vertex   5.141037e+001 8.648105e+000 -2.992076e+000
    endloop
  endfacet
  facet normal 6.910067e-008 5.000000e-001 8.660254e-001
    outer loop
      vertex   6.318573e+001 8.986236e+000 -3.187297e+000
      vertex   5.141037e+001 8.648105e+000 -2.992076e+000
      vertex   4.846324e+001 -1.224443e+001 9.070234e+000
    endloop
  endfacet
  facet normal -9.848077e-001 -1.736482e-001 -0.000000e+000
    outer loop
      vertex   6.708259e+001 6.176304e+001 9.312702e+000
      vertex   6.476799e+001 7.488978e+001 2.181270e+001
      vertex   6.476799e+001 7.488978e+001 -3.187297e+000
    endloop
  endfacet
  facet normal -3.420201e-001 -9.396927e-001 0.000000e+000
    outer loop
      vertex   6.185920e+001 7.647659e+001 9.312702e+000
      vertex   5.869003e+001 7.763007e+001 -3.187297e+000
      vertex   6.502836e+001 7.532311e+001 -3.187297e+000
    endloop
  endfacet
  facet normal -8.571593e-001 5.150515e-001 0.000000e+000
    outer loop
      vertex   5.039092e+001 5.096232e+001 9.312702e+000
      vertex   5.044447e+001 5.105143e+001 -3.187297e+000
      vertex   5.033738e+001 5.087321e+001 -3.187297e+000
    endloop
  endfacet
  facet normal -8.571593e-001 5.150515e-001 0.000000e+000
    outer loop
      vertex   5.039092e+001 5.096232e+001 9.312702e+000
      vertex   5.044447e+001 5.105143e+001 2.181270e+001
      vertex   5.044447e+001 5.105143e+001 -3.187297e+000
    endloop
  endfacet
  facet normal -7.369956e-001 6.387151e-001 2.210893e-001
    outer loop
      vertex   5.905114e+001 1.958722e+000 3.332289e+000
      vertex   6.332223e+001 9.143741e+000 -3.187297e+000
      vertex   6.318573e+001 8.986236e+000 -3.187297e+000
    endloop
  endfacet
  facet normal 0.000000e+000 0.000000e+000 1.000000e+000
    outer loop
      vertex   6.939719e+001 4.863630e+001 -3.187297e+000
      vertex   4.911347e+001 5.131868e+001 -3.187297e+000
      vertex   5.044447e+001 5.105143e+001 -3.187297e+000
    endloop
  endfacet
  facet normal 1.000000e+000 -0.000000e+000 0.000000e+000
    outer loop
      vertex   5.141037e+001 2.205527e+001 9.340606e+000
      vertex   5.141037e+001 8.648105e+000 -2.992076e+000
      vertex   5.141037e+001 8.986236e+000 -3.187297e+000
    endloop
  endfacet
  facet normal -0.000000e+000 0.000000e+000 1.000000e+000
    outer loop
      vertex   5.869003e+001 7.763007e+001 -3.187297e+000
      vertex   4.911347e+001 5.131868e+001 -3.187297e+000
      vertex   6.939719e+001 4.863630e+001 -3.187297e+000
    endloop
  endfacet
  facet normal 0.000000e+000 0.000000e+000 1.000000e+000
    outer loop
      vertex   6.476799e+001 7.488978e+001 -3.187297e+000
      vertex   5.869003e+001 7.763007e+001 -3.187297e+000
      vertex   6.939719e+001 4.863630e+001 -3.187297e+000
    endloop
  endfacet
  facet normal -3.420201e-001 -9.396927e-001 -0.000000e+000
    outer loop
      vertex   6.185920e+001 7.647659e+001 9.312702e+000
      vertex   5.869003e+001 7.763007e+001 2.181270e+001
      vertex   5.869003e+001 7.763007e+001 -3.187297e+000
    endloop
  endfacet
  facet normal 0.000000e+000 0.000000e+000 1.000000e+000
    outer loop
      vertex   6.939719e+001 4.863630e+001 -3.187297e+000
      vertex   5.044447e+001 5.105143e+001 -3.187297e+000
      vertex   6.899078e+001 4.457215e+001 -3.187297e+000
    endloop
  endfacet
  facet normal -3.420201e-001 -9.396927e-001 0.000000e+000
    outer loop
      vertex   6.185920e+001 7.647659e+001 9.312702e+000
      vertex   6.502836e+001 7.532311e+001 -3.187297e+000
      vertex   6.502836e+001 7.532311e+001 2.181270e+001
    endloop
  endfacet
  facet normal -7.369903e-001 6.387188e-001 2.210967e-001
    outer loop
      vertex   5.905114e+001 1.958722e+000 3.332289e+000
      vertex   6.544793e+001 9.143741e+000 3.898386e+000
      vertex   6.332223e+001 9.143741e+000 -3.187297e+000
    endloop
  endfacet
  facet normal -7.369903e-001 6.387188e-001 2.210965e-001
    outer loop
      vertex   5.905114e+001 1.958722e+000 3.332289e+000
      vertex   6.318573e+001 8.986236e+000 -3.187297e+000
      vertex   4.846324e+001 -1.224443e+001 9.070234e+000
    endloop
  endfacet
  facet normal 0.000000e+000 0.000000e+000 1.000000e+000
    outer loop
      vertex   6.899078e+001 4.457215e+001 -3.187297e+000
      vertex   5.044447e+001 5.105143e+001 -3.187297e+000
      vertex   5.150655e+001 4.862170e+001 -3.187297e+000
    endloop
  endfacet
  facet normal 0.000000e+000 0.000000e+000 1.000000e+000
    outer loop
      vertex   6.899078e+001 4.457215e+001 -3.187297e+000
      vertex   5.150655e+001 4.862170e+001 -3.187297e+000
      vertex   6.332223e+001 9.143741e+000 -3.187297e+000
    endloop
  endfacet
  facet normal 0.000000e+000 0.000000e+000 1.000000e+000
    outer loop
      vertex   5.044447e+001 5.105143e+001 -3.187297e+000
      vertex   4.911347e+001 5.131868e+001 -3.187297e+000
      vertex   5.033738e+001 5.087321e+001 -3.187297e+000
    endloop
  endfacet
  facet normal 0.000000e+000 0.000000e+000 1.000000e+000
    outer loop
      vertex   6.502836e+001 7.532311e+001 -3.187297e+000
      vertex   5.869003e+001 7.763007e+001 -3.187297e+000
      vertex   6.476799e+001 7.488978e+001 -3.187297e+000
    endloop
  endfacet
  facet normal -8.571593e-001 5.150515e-001 0.000000e+000
    outer loop
      vertex   5.039092e+001 5.096232e+001 9.312702e+000
      vertex   5.033738e+001 5.087321e+001 -3.187297e+000
      vertex   5.033738e+001 5.087321e+001 2.181270e+001
    endloop
  endfacet
  facet normal 9.901968e-001 -1.396786e-001 1.394182e-007
    outer loop
      vertex   4.943761e+001 -5.337016e+000 1.221461e+001
      vertex   4.846324e+001 -1.224443e+001 9.070234e+000
      vertex   5.141037e+001 8.648105e+000 -2.992076e+000
    endloop
  endfacet
  facet normal 9.901969e-001 -1.396787e-001 0.000000e+000
    outer loop
      vertex   4.943761e+001 -5.337016e+000 1.221461e+001
      vertex   5.141037e+001 8.648105e+000 -2.992076e+000
      vertex   5.141037e+001 8.648105e+000 2.178490e+001
    endloop
  endfacet
  facet normal 1.000000e+000 0.000000e+000 0.000000e+000
    outer loop
      vertex   5.141037e+001 2.205527e+001 9.340606e+000
      vertex   5.141037e+001 8.648105e+000 2.178490e+001
      vertex   5.141037e+001 8.648105e+000 -2.992076e+000
    endloop
  endfacet
  facet normal -2.391455e-001 8.704183e-002 -9.670745e-001
    outer loop
      vertex   4.404305e+001 6.789165e+001 -1.968107e+000
      vertex   3.440965e+001 5.715353e+001 -5.523754e-001
      vertex   3.771780e+001 8.409621e+001 1.054545e+000
    endloop
  endfacet
  facet normal -9.925461e-001 1.218699e-001 0.000000e+000
    outer loop
      vertex   3.460302e+001 5.872840e+001 2.081270e+001
      vertex   3.460302e+001 5.872840e+001 2.812703e+000
      vertex   3.440965e+001 5.715353e+001 -5.523754e-001
    endloop
  endfacet
  facet normal -9.925461e-001 1.218699e-001 0.000000e+000
    outer loop
      vertex   3.440965e+001 5.715353e+001 2.281270e+001
      vertex   3.460302e+001 5.872840e+001 2.081270e+001
      vertex   3.440965e+001 5.715353e+001 -5.523754e-001
    endloop
  endfacet
  facet normal -9.925462e-001 1.218694e-001 2.523931e-007
    outer loop
      vertex   3.771780e+001 8.409621e+001 1.054545e+000
      vertex   3.440965e+001 5.715353e+001 -5.523754e-001
      vertex   3.460302e+001 5.872840e+001 2.812703e+000
    endloop
  endfacet
  facet normal -4.385125e-001 -8.987250e-001 -0.000000e+000
    outer loop
      vertex   4.065086e+001 5.410828e+001 1.022143e+001
      vertex   3.440965e+001 5.715353e+001 2.281270e+001
      vertex   3.440965e+001 5.715353e+001 -5.523754e-001
    endloop
  endfacet
  facet normal -9.925460e-001 1.218698e-001 0.000000e+000
    outer loop
      vertex   3.760482e+001 8.317610e+001 2.081270e+001
      vertex   3.771780e+001 8.409621e+001 1.054545e+000
      vertex   3.760482e+001 8.317610e+001 2.812703e+000
    endloop
  endfacet
  facet normal 2.417691e-001 9.703338e-001 -0.000000e+000
    outer loop
      vertex   4.743523e+001 8.167501e+001 1.062316e+001
      vertex   3.771780e+001 8.409621e+001 1.054545e+000
      vertex   3.771780e+001 8.409621e+001 2.281270e+001
    endloop
  endfacet
  facet normal -9.925461e-001 1.218694e-001 -2.367355e-007
    outer loop
      vertex   3.760482e+001 8.317610e+001 2.812703e+000
      vertex   3.771780e+001 8.409621e+001 1.054545e+000
      vertex   3.460302e+001 5.872840e+001 2.812703e+000
    endloop
  endfacet
  facet normal -9.925461e-001 1.218698e-001 0.000000e+000
    outer loop
      vertex   3.771780e+001 8.409621e+001 2.281270e+001
      vertex   3.771780e+001 8.409621e+001 1.054545e+000
      vertex   3.760482e+001 8.317610e+001 2.081270e+001
    endloop
  endfacet
  facet normal -9.396927e-001 3.420198e-001 0.000000e+000
    outer loop
      vertex   3.638616e+001 6.020775e+001 1.881270e+001
      vertex   3.638616e+001 6.020775e+001 4.812703e+000
      vertex   3.570212e+001 5.832837e+001 2.812703e+000
    endloop
  endfacet
  facet normal -9.396926e-001 3.420202e-001 5.006791e-007
    outer loop
      vertex   4.322656e+001 7.900160e+001 4.812703e+000
      vertex   4.391060e+001 8.088099e+001 2.812703e+000
      vertex   3.638616e+001 6.020775e+001 4.812703e+000
    endloop
  endfacet
  facet normal 0.000000e+000 0.000000e+000 1.000000e+000
    outer loop
      vertex   3.795514e+001 7.027847e+001 2.812703e+000
      vertex   4.391060e+001 8.088099e+001 2.812703e+000
      vertex   3.760482e+001 8.317610e+001 2.812703e+000
    endloop
  endfacet
  facet normal 0.000000e+000 0.000000e+000 1.000000e+000
    outer loop
      vertex   3.795514e+001 7.027847e+001 2.812703e+000
      vertex   3.760482e+001 8.317610e+001 2.812703e+000
      vertex   3.460302e+001 5.872840e+001 2.812703e+000
    endloop
  endfacet
  facet normal -9.396927e-001 3.420198e-001 0.000000e+000
    outer loop
      vertex   4.322656e+001 7.900160e+001 1.881270e+001
      vertex   4.391060e+001 8.088099e+001 2.812703e+000
      vertex   4.322656e+001 7.900160e+001 4.812703e+000
    endloop
  endfacet
  facet normal -9.396926e-001 3.420202e-001 -4.371007e-007
    outer loop
      vertex   4.391060e+001 8.088099e+001 2.812703e+000
      vertex   3.570212e+001 5.832837e+001 2.812703e+000
      vertex   3.638616e+001 6.020775e+001 4.812703e+000
    endloop
  endfacet
  facet normal 0.000000e+000 0.000000e+000 1.000000e+000
    outer loop
      vertex   3.795514e+001 7.027847e+001 2.812703e+000
      vertex   3.570212e+001 5.832837e+001 2.812703e+000
      vertex   4.391060e+001 8.088099e+001 2.812703e+000
    endloop
  endfacet
  facet normal -0.000000e+000 0.000000e+000 1.000000e+000
    outer loop
      vertex   3.795514e+001 7.027847e+001 2.812703e+000
      vertex   3.460302e+001 5.872840e+001 2.812703e+000
      vertex   3.570212e+001 5.832837e+001 2.812703e+000
    endloop
  endfacet
  facet normal -9.396927e-001 3.420198e-001 0.000000e+000
    outer loop
      vertex   4.391060e+001 8.088099e+001 2.081270e+001
      vertex   4.391060e+001 8.088099e+001 2.812703e+000
      vertex   4.322656e+001 7.900160e+001 1.881270e+001
    endloop
  endfacet
  facet normal -9.396927e-001 3.420198e-001 0.000000e+000
    outer loop
      vertex   3.570212e+001 5.832837e+001 2.081270e+001
      vertex   3.638616e+001 6.020775e+001 1.881270e+001
      vertex   3.570212e+001 5.832837e+001 2.812703e+000
    endloop
  endfacet
  facet normal 3.420227e-001 9.396917e-001 0.000000e+000
    outer loop
      vertex   3.515257e+001 5.852839e+001 1.181270e+001
      vertex   3.570212e+001 5.832837e+001 2.081270e+001
      vertex   3.570212e+001 5.832837e+001 2.812703e+000
    endloop
  endfacet
  facet normal 3.420217e-001 9.396921e-001 -7.219354e-008
    outer loop
      vertex   3.515257e+001 5.852839e+001 1.181270e+001
      vertex   3.570212e+001 5.832837e+001 2.812703e+000
      vertex   3.460302e+001 5.872840e+001 2.812703e+000
    endloop
  endfacet
  facet normal 3.420206e-001 9.396924e-001 -0.000000e+000
    outer loop
      vertex   3.515257e+001 5.852839e+001 1.181270e+001
      vertex   3.460302e+001 5.872840e+001 2.812703e+000
      vertex   3.460302e+001 5.872840e+001 2.081270e+001
    endloop
  endfacet
  facet normal -3.420208e-001 -9.396924e-001 0.000000e+000
    outer loop
      vertex   4.075771e+001 8.202855e+001 1.181270e+001
      vertex   4.391060e+001 8.088099e+001 2.812703e+000
      vertex   4.391060e+001 8.088099e+001 2.081270e+001
    endloop
  endfacet
  facet normal -3.420187e-001 -9.396931e-001 -0.000000e+000
    outer loop
      vertex   4.075771e+001 8.202855e+001 1.181270e+001
      vertex   3.760482e+001 8.317610e+001 2.081270e+001
      vertex   3.760482e+001 8.317610e+001 2.812703e+000
    endloop
  endfacet
  facet normal -3.420197e-001 -9.396927e-001 4.026660e-007
    outer loop
      vertex   4.075771e+001 8.202855e+001 1.181270e+001
      vertex   3.760482e+001 8.317610e+001 2.812703e+000
      vertex   4.391060e+001 8.088099e+001 2.812703e+000
    endloop
  endfacet
  facet normal 7.369900e-001 -6.387189e-001 -2.210971e-001
    outer loop
      vertex   5.911939e+001 5.115556e-001 3.217528e+000
      vertex   6.641038e+001 8.718287e+000 3.812703e+000
      vertex   4.693741e+001 -1.590191e+001 1.002718e+001
    endloop
  endfacet
  facet normal -7.369899e-001 6.387190e-001 2.210974e-001
    outer loop
      vertex   5.905114e+001 1.958722e+000 3.332289e+000
      vertex   4.844327e+001 -1.238602e+001 9.412683e+000
      vertex   6.544447e+001 9.109054e+000 3.987031e+000
    endloop
  endfacet
  facet normal -7.369852e-001 6.387113e-001 2.211348e-001
    outer loop
      vertex   5.905114e+001 1.958722e+000 3.332289e+000
      vertex   6.544447e+001 9.109054e+000 3.987031e+000
      vertex   6.544793e+001 9.143741e+000 3.898386e+000
    endloop
  endfacet
  facet normal -7.369911e-001 6.387185e-001 2.210942e-001
    outer loop
      vertex   5.905114e+001 1.958722e+000 3.332289e+000
      vertex   4.846324e+001 -1.224443e+001 9.070234e+000
      vertex   4.844327e+001 -1.238602e+001 9.412683e+000
    endloop
  endfacet
  facet normal 7.843251e-001 -6.203500e-001 0.000000e+000
    outer loop
      vertex   5.667389e+001 -3.591811e+000 1.178102e+001
      vertex   6.641038e+001 8.718287e+000 3.812703e+000
      vertex   6.641038e+001 8.718287e+000 1.481270e+001
    endloop
  endfacet
  facet normal 9.950373e-001 -9.950373e-002 0.000000e+000
    outer loop
      vertex   6.840555e+001 2.866999e+001 9.312702e+000
      vertex   6.641038e+001 8.718287e+000 1.481270e+001
      vertex   6.641038e+001 8.718287e+000 3.812703e+000
    endloop
  endfacet
  facet normal 7.843252e-001 -6.203499e-001 1.999963e-007
    outer loop
      vertex   5.667389e+001 -3.591811e+000 1.178102e+001
      vertex   4.693741e+001 -1.590191e+001 1.002718e+001
      vertex   6.641038e+001 8.718287e+000 3.812703e+000
    endloop
  endfacet
  facet normal -9.950383e-001 9.949278e-002 5.134012e-005
    outer loop
      vertex   6.758754e+001 3.053982e+001 8.550900e+000
      vertex   6.544793e+001 9.143741e+000 3.898386e+000
      vertex   6.544447e+001 9.109054e+000 3.987031e+000
    endloop
  endfacet
  facet normal -7.843251e-001 6.203500e-001 0.000000e+000
    outer loop
      vertex   5.864345e+001 5.103502e-001 1.215360e+001
      vertex   6.544447e+001 9.109054e+000 1.472008e+001
      vertex   6.544447e+001 9.109054e+000 3.987031e+000
    endloop
  endfacet
  facet normal -7.843251e-001 6.203499e-001 0.000000e+000
    outer loop
      vertex   5.864345e+001 5.103502e-001 1.215360e+001
      vertex   6.544447e+001 9.109054e+000 3.987031e+000
      vertex   4.844327e+001 -1.238602e+001 9.412683e+000
    endloop
  endfacet
  facet normal -9.950373e-001 9.950361e-002 0.000000e+000
    outer loop
      vertex   6.758754e+001 3.053982e+001 8.550900e+000
      vertex   6.544447e+001 9.109054e+000 3.987031e+000
      vertex   6.544447e+001 9.109054e+000 1.472008e+001
    endloop
  endfacet
  facet normal 0.000000e+000 0.000000e+000 1.000000e+000
    outer loop
      vertex   4.685405e+001 6.703953e+001 4.812703e+000
      vertex   5.732195e+001 7.387130e+001 4.812703e+000
      vertex   4.322656e+001 7.900160e+001 4.812703e+000
    endloop
  endfacet
  facet normal 0.000000e+000 -0.000000e+000 1.000000e+000
    outer loop
      vertex   4.685405e+001 6.703953e+001 4.812703e+000
      vertex   5.048155e+001 5.507745e+001 4.812703e+000
      vertex   5.732195e+001 7.387130e+001 4.812703e+000
    endloop
  endfacet
  facet normal -3.420197e-001 -9.396927e-001 -0.000000e+000
    outer loop
      vertex   5.027426e+001 7.643645e+001 1.181270e+001
      vertex   4.322656e+001 7.900160e+001 1.881270e+001
      vertex   4.322656e+001 7.900160e+001 4.812703e+000
    endloop
  endfacet
  facet normal 0.000000e+000 0.000000e+000 1.000000e+000
    outer loop
      vertex   4.685405e+001 6.703953e+001 4.812703e+000
      vertex   4.322656e+001 7.900160e+001 4.812703e+000
      vertex   3.638616e+001 6.020775e+001 4.812703e+000
    endloop
  endfacet
  facet normal -3.420201e-001 -9.396926e-001 5.086263e-007
    outer loop
      vertex   5.027426e+001 7.643645e+001 1.181270e+001
      vertex   4.322656e+001 7.900160e+001 4.812703e+000
      vertex   5.732195e+001 7.387130e+001 4.812703e+000
    endloop
  endfacet
  facet normal -3.420206e-001 -9.396925e-001 0.000000e+000
    outer loop
      vertex   5.027426e+001 7.643645e+001 1.181270e+001
      vertex   5.732195e+001 7.387130e+001 4.812703e+000
      vertex   5.732195e+001 7.387130e+001 1.881270e+001
    endloop
  endfacet
  facet normal -0.000000e+000 0.000000e+000 1.000000e+000
    outer loop
      vertex   4.685405e+001 6.703953e+001 4.812703e+000
      vertex   3.638616e+001 6.020775e+001 4.812703e+000
      vertex   5.048155e+001 5.507745e+001 4.812703e+000
    endloop
  endfacet
  facet normal 3.420201e-001 9.396926e-001 -0.000000e+000
    outer loop
      vertex   4.343385e+001 5.764260e+001 1.181270e+001
      vertex   3.638616e+001 6.020775e+001 4.812703e+000
      vertex   3.638616e+001 6.020775e+001 1.881270e+001
    endloop
  endfacet
  facet normal 3.420201e-001 9.396926e-001 0.000000e+000
    outer loop
      vertex   4.343385e+001 5.764260e+001 1.181270e+001
      vertex   5.048155e+001 5.507745e+001 1.881270e+001
      vertex   5.048155e+001 5.507745e+001 4.812703e+000
    endloop
  endfacet
  facet normal 3.420201e-001 9.396926e-001 0.000000e+000
    outer loop
      vertex   4.343385e+001 5.764260e+001 1.181270e+001
      vertex   5.048155e+001 5.507745e+001 4.812703e+000
      vertex   3.638616e+001 6.020775e+001 4.812703e+000
    endloop
  endfacet
  facet normal -9.950372e-001 9.950368e-002 2.661694e-007
    outer loop
      vertex   6.758754e+001 3.053982e+001 8.550900e+000
      vertex   6.544447e+001 9.109054e+000 1.472008e+001
      vertex   6.899078e+001 4.457215e+001 2.181270e+001
    endloop
  endfacet
  facet normal -9.950373e-001 9.950279e-002 1.214835e-006
    outer loop
      vertex   6.758754e+001 3.053982e+001 8.550900e+000
      vertex   6.899078e+001 4.457215e+001 2.181270e+001
      vertex   6.939719e+001 4.863630e+001 2.181270e+001
    endloop
  endfacet
  facet normal 9.901967e-001 -1.396800e-001 3.407080e-006
    outer loop
      vertex   4.943761e+001 -5.337016e+000 1.221461e+001
      vertex   4.844327e+001 -1.238602e+001 9.412683e+000
      vertex   4.846324e+001 -1.224443e+001 9.070234e+000
    endloop
  endfacet
  facet normal -8.571718e-001 5.150305e-001 -2.617447e-007
    outer loop
      vertex   6.489818e+001 7.510645e+001 9.312702e+000
      vertex   6.476799e+001 7.488978e+001 2.181270e+001
      vertex   6.502836e+001 7.532311e+001 2.181270e+001
    endloop
  endfacet
  facet normal 9.950372e-001 -9.950373e-002 0.000000e+000
    outer loop
      vertex   6.840555e+001 2.866999e+001 9.312702e+000
      vertex   7.040072e+001 4.862170e+001 2.279339e+001
      vertex   6.641038e+001 8.718287e+000 1.481270e+001
    endloop
  endfacet
  facet normal 3.420213e-001 9.396923e-001 -8.969575e-008
    outer loop
      vertex   4.972543e+001 5.109594e+001 9.312702e+000
      vertex   4.911347e+001 5.131868e+001 2.181270e+001
      vertex   5.033738e+001 5.087321e+001 2.181270e+001
    endloop
  endfacet
  facet normal 3.420204e-001 9.396926e-001 -3.160921e-007
    outer loop
      vertex   6.135285e+001 7.772506e+001 9.312702e+000
      vertex   5.715267e+001 7.925381e+001 2.281270e+001
      vertex   6.555304e+001 7.619632e+001 2.281270e+001
    endloop
  endfacet
  facet normal -0.000000e+000 1.000000e+000 0.000000e+000
    outer loop
      vertex   7.040427e+001 4.871829e+001 9.312702e+000
      vertex   7.039816e+001 4.871829e+001 2.281270e+001
      vertex   7.041038e+001 4.871829e+001 2.281270e+001
    endloop
  endfacet
  facet normal -0.000000e+000 -1.000000e+000 0.000000e+000
    outer loop
      vertex   5.145846e+001 4.862170e+001 9.312702e+000
      vertex   5.150655e+001 4.862170e+001 2.181270e+001
      vertex   5.141037e+001 4.862170e+001 2.181270e+001
    endloop
  endfacet
  facet normal -3.420204e-001 -9.396926e-001 0.000000e+000
    outer loop
      vertex   4.835238e+001 5.053151e+001 9.312702e+000
      vertex   4.981270e+001 5.000000e+001 2.281270e+001
      vertex   4.689206e+001 5.106303e+001 2.281270e+001
    endloop
  endfacet
  facet normal -3.420201e-001 -9.396927e-001 0.000000e+000
    outer loop
      vertex   6.185920e+001 7.647659e+001 9.312702e+000
      vertex   6.502836e+001 7.532311e+001 2.181270e+001
      vertex   5.869003e+001 7.763007e+001 2.181270e+001
    endloop
  endfacet
  facet normal 9.162843e-001 4.005286e-001 0.000000e+000
    outer loop
      vertex   5.097551e+001 4.983656e+001 9.312702e+000
      vertex   5.044447e+001 5.105143e+001 2.181270e+001
      vertex   5.150655e+001 4.862170e+001 2.181270e+001
    endloop
  endfacet
  facet normal 9.950295e-001 -9.958021e-002 1.407381e-008
    outer loop
      vertex   7.040816e+001 4.869618e+001 9.312702e+000
      vertex   7.041038e+001 4.871829e+001 2.281270e+001
      vertex   7.040595e+001 4.867407e+001 2.280386e+001
    endloop
  endfacet
  facet normal -9.162843e-001 -4.005283e-001 0.000000e+000
    outer loop
      vertex   5.011154e+001 4.931636e+001 9.312702e+000
      vertex   5.041037e+001 4.863271e+001 2.281270e+001
      vertex   4.981270e+001 5.000000e+001 2.281270e+001
    endloop
  endfacet
  facet normal -9.848077e-001 -1.736481e-001 -2.289521e-008
    outer loop
      vertex   6.708259e+001 6.176304e+001 9.312702e+000
      vertex   6.939719e+001 4.863630e+001 2.181270e+001
      vertex   6.476799e+001 7.488978e+001 2.181270e+001
    endloop
  endfacet
  facet normal 9.848077e-001 1.736481e-001 2.430543e-007
    outer loop
      vertex   6.797560e+001 6.245730e+001 9.312702e+000
      vertex   6.555304e+001 7.619632e+001 2.281270e+001
      vertex   7.039816e+001 4.871829e+001 2.281270e+001
    endloop
  endfacet
  facet normal -8.571593e-001 5.150515e-001 0.000000e+000
    outer loop
      vertex   5.039092e+001 5.096232e+001 9.312702e+000
      vertex   5.033738e+001 5.087321e+001 2.181270e+001
      vertex   5.044447e+001 5.105143e+001 2.181270e+001
    endloop
  endfacet
  facet normal -1.000000e+000 0.000000e+000 0.000000e+000
    outer loop
      vertex   5.041037e+001 2.867550e+001 9.312702e+000
      vertex   5.041037e+001 8.718287e+000 2.281270e+001
      vertex   5.041037e+001 4.863271e+001 2.281270e+001
    endloop
  endfacet
  facet normal 1.000000e+000 0.000000e+000 0.000000e+000
    outer loop
      vertex   5.141037e+001 2.205527e+001 9.340606e+000
      vertex   5.141037e+001 8.805776e+000 2.181270e+001
      vertex   5.141037e+001 8.648105e+000 2.178490e+001
    endloop
  endfacet
  facet normal 1.000000e+000 0.000000e+000 0.000000e+000
    outer loop
      vertex   5.141037e+001 2.205527e+001 9.340606e+000
      vertex   5.141037e+001 4.862170e+001 2.181270e+001
      vertex   5.141037e+001 8.805776e+000 2.181270e+001
    endloop
  endfacet
  facet normal 9.901968e-001 -1.396787e-001 0.000000e+000
    outer loop
      vertex   4.943761e+001 -5.337016e+000 1.221461e+001
      vertex   4.844327e+001 -1.238602e+001 1.792104e+001
      vertex   4.844327e+001 -1.238602e+001 9.412683e+000
    endloop
  endfacet
  facet normal -7.843251e-001 6.203500e-001 0.000000e+000
    outer loop
      vertex   5.864345e+001 5.103502e-001 1.215360e+001
      vertex   4.844327e+001 -1.238602e+001 9.412683e+000
      vertex   4.844327e+001 -1.238602e+001 1.792104e+001
    endloop
  endfacet
  facet normal -9.901969e-001 1.396787e-001 0.000000e+000
    outer loop
      vertex   4.867389e+001 -3.591811e+000 1.178102e+001
      vertex   4.693741e+001 -1.590191e+001 1.002718e+001
      vertex   4.693741e+001 -1.590191e+001 1.847150e+001
    endloop
  endfacet
  facet normal 7.843252e-001 -6.203499e-001 0.000000e+000
    outer loop
      vertex   5.667389e+001 -3.591811e+000 1.178102e+001
      vertex   4.693741e+001 -1.590191e+001 1.847150e+001
      vertex   4.693741e+001 -1.590191e+001 1.002718e+001
    endloop
  endfacet
  facet normal -4.385124e-001 -8.987252e-001 6.543954e-008
    outer loop
      vertex   4.065086e+001 5.410828e+001 1.022143e+001
      vertex   4.689206e+001 5.106303e+001 2.281270e+001
      vertex   3.440965e+001 5.715353e+001 2.281270e+001
    endloop
  endfacet
  facet normal 2.417691e-001 9.703338e-001 0.000000e+000
    outer loop
      vertex   4.743523e+001 8.167501e+001 1.062316e+001
      vertex   3.771780e+001 8.409621e+001 2.281270e+001
      vertex   5.715267e+001 7.925381e+001 2.281270e+001
    endloop
  endfacet
  facet normal -9.901969e-001 1.396786e-001 -1.731424e-008
    outer loop
      vertex   4.867389e+001 -3.591811e+000 1.178102e+001
      vertex   4.693741e+001 -1.590191e+001 1.847150e+001
      vertex   5.041037e+001 8.718287e+000 2.281270e+001
    endloop
  endfacet
  facet normal 7.843251e-001 -6.203499e-001 -1.999963e-007
    outer loop
      vertex   5.667389e+001 -3.591811e+000 1.178102e+001
      vertex   6.641038e+001 8.718287e+000 1.481270e+001
      vertex   4.693741e+001 -1.590191e+001 1.847150e+001
    endloop
  endfacet
  facet normal -3.420197e-001 -9.396927e-001 -3.947706e-007
    outer loop
      vertex   4.075771e+001 8.202855e+001 1.181270e+001
      vertex   4.391060e+001 8.088099e+001 2.081270e+001
      vertex   3.760482e+001 8.317610e+001 2.081270e+001
    endloop
  endfacet
  facet normal 3.420201e-001 9.396926e-001 0.000000e+000
    outer loop
      vertex   4.343385e+001 5.764260e+001 1.181270e+001
      vertex   3.638616e+001 6.020775e+001 1.881270e+001
      vertex   5.048155e+001 5.507745e+001 1.881270e+001
    endloop
  endfacet
  facet normal 3.420217e-001 9.396921e-001 7.360910e-008
    outer loop
      vertex   3.515257e+001 5.852839e+001 1.181270e+001
      vertex   3.460302e+001 5.872840e+001 2.081270e+001
      vertex   3.570212e+001 5.832837e+001 2.081270e+001
    endloop
  endfacet
  facet normal -3.420201e-001 -9.396926e-001 -5.086263e-007
    outer loop
      vertex   5.027426e+001 7.643645e+001 1.181270e+001
      vertex   5.732195e+001 7.387130e+001 1.881270e+001
      vertex   4.322656e+001 7.900160e+001 1.881270e+001
    endloop
  endfacet
  facet normal -7.843463e-001 6.203232e-001 1.462526e-004
    outer loop
      vertex   5.864345e+001 5.103502e-001 1.215360e+001
      vertex   6.544180e+001 9.105685e+000 1.472717e+001
      vertex   6.544447e+001 9.109054e+000 1.472008e+001
    endloop
  endfacet
  facet normal -7.843250e-001 6.203500e-001 2.892087e-007
    outer loop
      vertex   5.864345e+001 5.103502e-001 1.215360e+001
      vertex   4.844327e+001 -1.238602e+001 1.792104e+001
      vertex   6.544180e+001 9.105685e+000 1.472717e+001
    endloop
  endfacet
  facet normal 9.901958e-001 -1.396865e-001 -9.812593e-006
    outer loop
      vertex   4.943761e+001 -5.337016e+000 1.221461e+001
      vertex   4.845514e+001 -1.230185e+001 1.809086e+001
      vertex   4.844327e+001 -1.238602e+001 1.792104e+001
    endloop
  endfacet
  facet normal 9.901969e-001 -1.396786e-001 -2.284112e-007
    outer loop
      vertex   4.943761e+001 -5.337016e+000 1.221461e+001
      vertex   5.141037e+001 8.648105e+000 2.178490e+001
      vertex   4.845514e+001 -1.230185e+001 1.809086e+001
    endloop
  endfacet
  facet normal -9.468363e-001 1.514157e-001 -2.838561e-001
    outer loop
      vertex   6.579829e+001 1.797314e+001 1.826816e+001
      vertex   6.544447e+001 9.109054e+000 1.472008e+001
      vertex   6.544180e+001 9.105685e+000 1.472717e+001
    endloop
  endfacet
  facet normal -9.467725e-001 1.514838e-001 -2.840325e-001
    outer loop
      vertex   6.579829e+001 1.797314e+001 1.826816e+001
      vertex   6.899078e+001 4.457215e+001 2.181270e+001
      vertex   6.544447e+001 9.109054e+000 1.472008e+001
    endloop
  endfacet
  facet normal -7.791979e-001 5.815558e-001 -2.337597e-001
    outer loop
      vertex   5.774973e+001 4.658555e-001 1.887289e+001
      vertex   6.331614e+001 9.105685e+000 2.181270e+001
      vertex   6.544180e+001 9.105685e+000 1.472717e+001
    endloop
  endfacet
  facet normal -7.791978e-001 5.815558e-001 -2.337598e-001
    outer loop
      vertex   5.774973e+001 4.658555e-001 1.887289e+001
      vertex   6.544180e+001 9.105685e+000 1.472717e+001
      vertex   4.844327e+001 -1.238602e+001 1.792104e+001
    endloop
  endfacet
  facet normal -9.467727e-001 1.514834e-001 -2.840322e-001
    outer loop
      vertex   6.579829e+001 1.797314e+001 1.826816e+001
      vertex   6.544180e+001 9.105685e+000 1.472717e+001
      vertex   6.331614e+001 9.105685e+000 2.181270e+001
    endloop
  endfacet
  facet normal 9.467727e-001 -1.514837e-001 2.840320e-001
    outer loop
      vertex   6.780410e+001 2.866999e+001 2.080787e+001
      vertex   6.401038e+001 8.718287e+000 2.281270e+001
      vertex   6.641038e+001 8.718287e+000 1.481270e+001
    endloop
  endfacet
  facet normal 7.791979e-001 -5.815557e-001 2.337596e-001
    outer loop
      vertex   5.911939e+001 5.115556e-001 1.869897e+001
      vertex   4.693741e+001 -1.590191e+001 1.847150e+001
      vertex   6.641038e+001 8.718287e+000 1.481270e+001
    endloop
  endfacet
  facet normal 9.467729e-001 -1.514836e-001 2.840316e-001
    outer loop
      vertex   6.780410e+001 2.866999e+001 2.080787e+001
      vertex   6.641038e+001 8.718287e+000 1.481270e+001
      vertex   7.040072e+001 4.862170e+001 2.279339e+001
    endloop
  endfacet
  facet normal 7.791979e-001 -5.815558e-001 2.337595e-001
    outer loop
      vertex   5.911939e+001 5.115556e-001 1.869897e+001
      vertex   6.641038e+001 8.718287e+000 1.481270e+001
      vertex   6.401038e+001 8.718287e+000 2.281270e+001
    endloop
  endfacet
  facet normal -7.792008e-001 5.815570e-001 -2.337467e-001
    outer loop
      vertex   5.774973e+001 4.658555e-001 1.887289e+001
      vertex   4.844327e+001 -1.238602e+001 1.792104e+001
      vertex   4.845514e+001 -1.230185e+001 1.809086e+001
    endloop
  endfacet
  facet normal -3.075896e-008 1.736482e-001 -9.848077e-001
    outer loop
      vertex   6.309230e+001 8.805776e+000 2.181270e+001
      vertex   4.845514e+001 -1.230185e+001 1.809086e+001
      vertex   5.141037e+001 8.648105e+000 2.178490e+001
    endloop
  endfacet
  facet normal -7.791980e-001 5.815557e-001 -2.337593e-001
    outer loop
      vertex   5.774973e+001 4.658555e-001 1.887289e+001
      vertex   4.845514e+001 -1.230185e+001 1.809086e+001
      vertex   6.309230e+001 8.805776e+000 2.181270e+001
    endloop
  endfacet
  facet normal -9.467728e-001 1.514837e-001 -2.840317e-001
    outer loop
      vertex   6.579829e+001 1.797314e+001 1.826816e+001
      vertex   6.331614e+001 9.105685e+000 2.181270e+001
      vertex   6.899078e+001 4.457215e+001 2.181270e+001
    endloop
  endfacet
  facet normal 7.791979e-001 -5.815557e-001 2.337594e-001
    outer loop
      vertex   5.911939e+001 5.115556e-001 1.869897e+001
      vertex   6.401038e+001 8.718287e+000 2.281270e+001
      vertex   4.693741e+001 -1.590191e+001 1.847150e+001
    endloop
  endfacet
  facet normal -1.346364e-007 -1.736481e-001 9.848078e-001
    outer loop
      vertex   5.378605e+001 5.115556e-001 2.136563e+001
      vertex   5.041037e+001 8.718287e+000 2.281270e+001
      vertex   4.693741e+001 -1.590191e+001 1.847150e+001
    endloop
  endfacet
  facet normal 1.346363e-007 -1.736483e-001 9.848078e-001
    outer loop
      vertex   5.378605e+001 5.115556e-001 2.136563e+001
      vertex   4.693741e+001 -1.590191e+001 1.847150e+001
      vertex   6.401038e+001 8.718287e+000 2.281270e+001
    endloop
  endfacet
  facet normal 0.000000e+000 0.000000e+000 -1.000000e+000
    outer loop
      vertex   4.685405e+001 6.703953e+001 1.881270e+001
      vertex   3.638616e+001 6.020775e+001 1.881270e+001
      vertex   4.322656e+001 7.900160e+001 1.881270e+001
    endloop
  endfacet
  facet normal 0.000000e+000 0.000000e+000 -1.000000e+000
    outer loop
      vertex   4.685405e+001 6.703953e+001 1.881270e+001
      vertex   5.048155e+001 5.507745e+001 1.881270e+001
      vertex   3.638616e+001 6.020775e+001 1.881270e+001
    endloop
  endfacet
  facet normal 9.396926e-001 -3.420202e-001 5.449568e-007
    outer loop
      vertex   5.869003e+001 7.763007e+001 2.181270e+001
      vertex   4.911347e+001 5.131868e+001 2.181270e+001
      vertex   5.732195e+001 7.387130e+001 1.881270e+001
    endloop
  endfacet
  facet normal 9.396926e-001 -3.420203e-001 -2.225240e-007
    outer loop
      vertex   5.732195e+001 7.387130e+001 1.881270e+001
      vertex   4.911347e+001 5.131868e+001 2.181270e+001
      vertex   5.048155e+001 5.507745e+001 1.881270e+001
    endloop
  endfacet
  facet normal -9.396926e-001 3.420202e-001 5.006791e-007
    outer loop
      vertex   4.322656e+001 7.900160e+001 1.881270e+001
      vertex   3.638616e+001 6.020775e+001 1.881270e+001
      vertex   3.570212e+001 5.832837e+001 2.081270e+001
    endloop
  endfacet
  facet normal -9.396926e-001 3.420202e-001 -4.172325e-007
    outer loop
      vertex   4.391060e+001 8.088099e+001 2.081270e+001
      vertex   4.322656e+001 7.900160e+001 1.881270e+001
      vertex   3.570212e+001 5.832837e+001 2.081270e+001
    endloop
  endfacet
  facet normal 0.000000e+000 0.000000e+000 -1.000000e+000
    outer loop
      vertex   4.685405e+001 6.703953e+001 1.881270e+001
      vertex   5.732195e+001 7.387130e+001 1.881270e+001
      vertex   5.048155e+001 5.507745e+001 1.881270e+001
    endloop
  endfacet
  facet normal 0.000000e+000 0.000000e+000 -1.000000e+000
    outer loop
      vertex   4.685405e+001 6.703953e+001 1.881270e+001
      vertex   4.322656e+001 7.900160e+001 1.881270e+001
      vertex   5.732195e+001 7.387130e+001 1.881270e+001
    endloop
  endfacet
  facet normal -7.791960e-001 5.815563e-001 -2.337645e-001
    outer loop
      vertex   5.774973e+001 4.658555e-001 1.887289e+001
      vertex   6.309230e+001 8.805776e+000 2.181270e+001
      vertex   6.331614e+001 9.105685e+000 2.181270e+001
    endloop
  endfacet
  facet normal 9.467724e-001 -1.514835e-001 2.840332e-001
    outer loop
      vertex   6.780410e+001 2.866999e+001 2.080787e+001
      vertex   7.039492e+001 4.862170e+001 2.281270e+001
      vertex   6.401038e+001 8.718287e+000 2.281270e+001
    endloop
  endfacet
  facet normal 9.467224e-001 -1.514933e-001 2.841944e-001
    outer loop
      vertex   6.780410e+001 2.866999e+001 2.080787e+001
      vertex   7.040072e+001 4.862170e+001 2.279339e+001
      vertex   7.039492e+001 4.862170e+001 2.281270e+001
    endloop
  endfacet
  facet normal 0.000000e+000 0.000000e+000 -1.000000e+000
    outer loop
      vertex   3.795514e+001 7.027847e+001 2.081270e+001
      vertex   3.760482e+001 8.317610e+001 2.081270e+001
      vertex   4.391060e+001 8.088099e+001 2.081270e+001
    endloop
  endfacet
  facet normal 0.000000e+000 0.000000e+000 -1.000000e+000
    outer loop
      vertex   3.795514e+001 7.027847e+001 2.081270e+001
      vertex   3.460302e+001 5.872840e+001 2.081270e+001
      vertex   3.760482e+001 8.317610e+001 2.081270e+001
    endloop
  endfacet
  facet normal -9.925461e-001 1.218694e-001 -4.549364e-007
    outer loop
      vertex   3.760482e+001 8.317610e+001 2.081270e+001
      vertex   3.460302e+001 5.872840e+001 2.081270e+001
      vertex   3.440965e+001 5.715353e+001 2.281270e+001
    endloop
  endfacet
  facet normal 0.000000e+000 0.000000e+000 -1.000000e+000
    outer loop
      vertex   3.795514e+001 7.027847e+001 2.081270e+001
      vertex   3.570212e+001 5.832837e+001 2.081270e+001
      vertex   3.460302e+001 5.872840e+001 2.081270e+001
    endloop
  endfacet
  facet normal -9.925461e-001 1.218694e-001 1.844460e-007
    outer loop
      vertex   3.771780e+001 8.409621e+001 2.281270e+001
      vertex   3.760482e+001 8.317610e+001 2.081270e+001
      vertex   3.440965e+001 5.715353e+001 2.281270e+001
    endloop
  endfacet
  facet normal 0.000000e+000 0.000000e+000 -1.000000e+000
    outer loop
      vertex   3.795514e+001 7.027847e+001 2.081270e+001
      vertex   4.391060e+001 8.088099e+001 2.081270e+001
      vertex   3.570212e+001 5.832837e+001 2.081270e+001
    endloop
  endfacet
  facet normal 0.000000e+000 -1.736481e-001 9.848078e-001
    outer loop
      vertex   5.378605e+001 5.115556e-001 2.136563e+001
      vertex   6.401038e+001 8.718287e+000 2.281270e+001
      vertex   5.041037e+001 8.718287e+000 2.281270e+001
    endloop
  endfacet
  facet normal 0.000000e+000 1.736474e-001 -9.848079e-001
    outer loop
      vertex   6.309230e+001 8.805776e+000 2.181270e+001
      vertex   5.141037e+001 8.648105e+000 2.178490e+001
      vertex   5.141037e+001 8.805776e+000 2.181270e+001
    endloop
  endfacet
  facet normal -0.000000e+000 0.000000e+000 -1.000000e+000
    outer loop
      vertex   5.141037e+001 4.862170e+001 2.181270e+001
      vertex   6.331614e+001 9.105685e+000 2.181270e+001
      vertex   5.141037e+001 8.805776e+000 2.181270e+001
    endloop
  endfacet
  facet normal 0.000000e+000 0.000000e+000 -1.000000e+000
    outer loop
      vertex   6.939719e+001 4.863630e+001 2.181270e+001
      vertex   5.044447e+001 5.105143e+001 2.181270e+001
      vertex   4.911347e+001 5.131868e+001 2.181270e+001
    endloop
  endfacet
  facet normal 0.000000e+000 0.000000e+000 -1.000000e+000
    outer loop
      vertex   6.476799e+001 7.488978e+001 2.181270e+001
      vertex   6.939719e+001 4.863630e+001 2.181270e+001
      vertex   5.869003e+001 7.763007e+001 2.181270e+001
    endloop
  endfacet
  facet normal 0.000000e+000 0.000000e+000 -1.000000e+000
    outer loop
      vertex   6.502836e+001 7.532311e+001 2.181270e+001
      vertex   6.476799e+001 7.488978e+001 2.181270e+001
      vertex   5.869003e+001 7.763007e+001 2.181270e+001
    endloop
  endfacet
  facet normal 0.000000e+000 0.000000e+000 -1.000000e+000
    outer loop
      vertex   5.869003e+001 7.763007e+001 2.181270e+001
      vertex   6.939719e+001 4.863630e+001 2.181270e+001
      vertex   4.911347e+001 5.131868e+001 2.181270e+001
    endloop
  endfacet
  facet normal 0.000000e+000 0.000000e+000 -1.000000e+000
    outer loop
      vertex   6.331614e+001 9.105685e+000 2.181270e+001
      vertex   6.309230e+001 8.805776e+000 2.181270e+001
      vertex   5.141037e+001 8.805776e+000 2.181270e+001
    endloop
  endfacet
  facet normal 0.000000e+000 0.000000e+000 -1.000000e+000
    outer loop
      vertex   5.150655e+001 4.862170e+001 2.181270e+001
      vertex   6.331614e+001 9.105685e+000 2.181270e+001
      vertex   5.141037e+001 4.862170e+001 2.181270e+001
    endloop
  endfacet
  facet normal 0.000000e+000 0.000000e+000 -1.000000e+000
    outer loop
      vertex   5.044447e+001 5.105143e+001 2.181270e+001
      vertex   5.033738e+001 5.087321e+001 2.181270e+001
      vertex   4.911347e+001 5.131868e+001 2.181270e+001
    endloop
  endfacet
  facet normal 0.000000e+000 0.000000e+000 -1.000000e+000
    outer loop
      vertex   6.899078e+001 4.457215e+001 2.181270e+001
      vertex   5.150655e+001 4.862170e+001 2.181270e+001
      vertex   5.044447e+001 5.105143e+001 2.181270e+001
    endloop
  endfacet
  facet normal 0.000000e+000 0.000000e+000 -1.000000e+000
    outer loop
      vertex   6.899078e+001 4.457215e+001 2.181270e+001
      vertex   6.331614e+001 9.105685e+000 2.181270e+001
      vertex   5.150655e+001 4.862170e+001 2.181270e+001
    endloop
  endfacet
  facet normal 0.000000e+000 0.000000e+000 -1.000000e+000
    outer loop
      vertex   6.939719e+001 4.863630e+001 2.181270e+001
      vertex   6.899078e+001 4.457215e+001 2.181270e+001
      vertex   5.044447e+001 5.105143e+001 2.181270e+001
    endloop
  endfacet
  facet normal 0.000000e+000 -1.000000e+000 0.000000e+000
    outer loop
      vertex   7.041519e+001 4.862170e+001 2.281270e+001
      vertex   7.039492e+001 4.862170e+001 2.281270e+001
      vertex   7.040072e+001 4.862170e+001 2.279339e+001
    endloop
  endfacet
  facet normal 9.848017e-001 1.736822e-001 -3.050893e-004
    outer loop
      vertex   7.040456e+001 4.868196e+001 2.281270e+001
      vertex   7.041519e+001 4.862170e+001 2.281270e+001
      vertex   7.040595e+001 4.867407e+001 2.280386e+001
    endloop
  endfacet
  facet normal 9.471352e-001 -1.513597e-001 2.828875e-001
    outer loop
      vertex   7.040697e+001 4.869144e+001 2.280976e+001
      vertex   7.040595e+001 4.867407e+001 2.280386e+001
      vertex   7.041038e+001 4.871829e+001 2.281270e+001
    endloop
  endfacet
  facet normal 9.467357e-001 -1.517233e-001 2.840274e-001
    outer loop
      vertex   7.040697e+001 4.869144e+001 2.280976e+001
      vertex   7.040456e+001 4.868196e+001 2.281270e+001
      vertex   7.040595e+001 4.867407e+001 2.280386e+001
    endloop
  endfacet
  facet normal 9.465813e-001 -1.514848e-001 2.846685e-001
    outer loop
      vertex   7.040697e+001 4.869144e+001 2.280976e+001
      vertex   7.041038e+001 4.871829e+001 2.281270e+001
      vertex   7.040456e+001 4.868196e+001 2.281270e+001
    endloop
  endfacet
  facet normal 0.000000e+000 0.000000e+000 1.000000e+000
    outer loop
      vertex   6.555304e+001 7.619632e+001 2.281270e+001
      vertex   5.715267e+001 7.925381e+001 2.281270e+001
      vertex   7.039816e+001 4.871829e+001 2.281270e+001
    endloop
  endfacet
  facet normal 0.000000e+000 0.000000e+000 1.000000e+000
    outer loop
      vertex   7.039492e+001 4.862170e+001 2.281270e+001
      vertex   3.440965e+001 5.715353e+001 2.281270e+001
      vertex   4.981270e+001 5.000000e+001 2.281270e+001
    endloop
  endfacet
  facet normal 0.000000e+000 0.000000e+000 1.000000e+000
    outer loop
      vertex   4.981270e+001 5.000000e+001 2.281270e+001
      vertex   3.440965e+001 5.715353e+001 2.281270e+001
      vertex   4.689206e+001 5.106303e+001 2.281270e+001
    endloop
  endfacet
  facet normal 0.000000e+000 0.000000e+000 1.000000e+000
    outer loop
      vertex   5.041037e+001 4.863271e+001 2.281270e+001
      vertex   5.041037e+001 8.718287e+000 2.281270e+001
      vertex   6.401038e+001 8.718287e+000 2.281270e+001
    endloop
  endfacet
  facet normal 0.000000e+000 0.000000e+000 1.000000e+000
    outer loop
      vertex   5.715267e+001 7.925381e+001 2.281270e+001
      vertex   3.771780e+001 8.409621e+001 2.281270e+001
      vertex   7.039816e+001 4.871829e+001 2.281270e+001
    endloop
  endfacet
  facet normal 0.000000e+000 0.000000e+000 1.000000e+000
    outer loop
      vertex   7.040456e+001 4.868196e+001 2.281270e+001
      vertex   3.440965e+001 5.715353e+001 2.281270e+001
      vertex   7.041519e+001 4.862170e+001 2.281270e+001
    endloop
  endfacet
  facet normal 0.000000e+000 0.000000e+000 1.000000e+000
    outer loop
      vertex   7.041519e+001 4.862170e+001 2.281270e+001
      vertex   3.440965e+001 5.715353e+001 2.281270e+001
      vertex   7.039492e+001 4.862170e+001 2.281270e+001
    endloop
  endfacet
  facet normal 0.000000e+000 0.000000e+000 1.000000e+000
    outer loop
      vertex   7.039492e+001 4.862170e+001 2.281270e+001
      vertex   4.981270e+001 5.000000e+001 2.281270e+001
      vertex   5.041037e+001 4.863271e+001 2.281270e+001
    endloop
  endfacet
  facet normal 0.000000e+000 0.000000e+000 1.000000e+000
    outer loop
      vertex   7.039492e+001 4.862170e+001 2.281270e+001
      vertex   5.041037e+001 4.863271e+001 2.281270e+001
      vertex   6.401038e+001 8.718287e+000 2.281270e+001
    endloop
  endfacet
  facet normal -0.000000e+000 0.000000e+000 1.000000e+000
    outer loop
      vertex   3.771780e+001 8.409621e+001 2.281270e+001
      vertex   3.440965e+001 5.715353e+001 2.281270e+001
      vertex   7.039816e+001 4.871829e+001 2.281270e+001
    endloop
  endfacet
  facet normal 0.000000e+000 0.000000e+000 1.000000e+000
    outer loop
      vertex   7.039816e+001 4.871829e+001 2.281270e+001
      vertex   3.440965e+001 5.715353e+001 2.281270e+001
      vertex   7.040456e+001 4.868196e+001 2.281270e+001
    endloop
  endfacet
  facet normal -0.000000e+000 0.000000e+000 1.000000e+000
    outer loop
      vertex   7.041038e+001 4.871829e+001 2.281270e+001
      vertex   7.039816e+001 4.871829e+001 2.281270e+001
      vertex   7.040456e+001 4.868196e+001 2.281270e+001
    endloop
  endfacet
endsolid
