solid ascii
  facet normal -0.000000e+000 1.000000e+000 0.000000e+000
    outer loop
      vertex   -9.160048e+001 1.419194e+002 1.922476e+001
      vertex   -8.053048e+001 1.419194e+002 1.922476e+001
      vertex   -9.160048e+001 1.419194e+002 1.172476e+001
    endloop
  endfacet
  facet normal -0.000000e+000 1.000000e+000 0.000000e+000
    outer loop
      vertex   -9.160048e+001 1.419194e+002 1.172476e+001
      vertex   -8.053048e+001 1.419194e+002 1.922476e+001
      vertex   -8.053048e+001 1.419194e+002 1.172476e+001
    endloop
  endfacet
  facet normal -0.000000e+000 1.000000e+000 0.000000e+000
    outer loop
      vertex   -9.160048e+001 1.419194e+002 4.224761e+000
      vertex   -8.053048e+001 1.419194e+002 1.172476e+001
      vertex   -8.053048e+001 1.419194e+002 4.224761e+000
    endloop
  endfacet
  facet normal -0.000000e+000 1.000000e+000 0.000000e+000
    outer loop
      vertex   -9.160048e+001 1.419194e+002 4.224761e+000
      vertex   -9.160048e+001 1.419194e+002 1.172476e+001
      vertex   -8.053048e+001 1.419194e+002 1.172476e+001
    endloop
  endfacet
  facet normal -0.000000e+000 1.000000e+000 0.000000e+000
    outer loop
      vertex   -8.053048e+001 1.419194e+002 1.922476e+001
      vertex   -6.946048e+001 1.419194e+002 1.922476e+001
      vertex   -8.053048e+001 1.419194e+002 1.172476e+001
    endloop
  endfacet
  facet normal -0.000000e+000 1.000000e+000 0.000000e+000
    outer loop
      vertex   -8.053048e+001 1.419194e+002 1.172476e+001
      vertex   -6.946048e+001 1.419194e+002 1.922476e+001
      vertex   -6.946048e+001 1.419194e+002 1.172476e+001
    endloop
  endfacet
  facet normal -0.000000e+000 1.000000e+000 0.000000e+000
    outer loop
      vertex   -8.053048e+001 1.419194e+002 4.224761e+000
      vertex   -6.946048e+001 1.419194e+002 1.172476e+001
      vertex   -6.946048e+001 1.419194e+002 4.224761e+000
    endloop
  endfacet
  facet normal 0.000000e+000 1.000000e+000 0.000000e+000
    outer loop
      vertex   -8.053048e+001 1.419194e+002 4.224761e+000
      vertex   -8.053048e+001 1.419194e+002 1.172476e+001
      vertex   -6.946048e+001 1.419194e+002 1.172476e+001
    endloop
  endfacet
  facet normal 1.000000e+000 0.000000e+000 0.000000e+000
    outer loop
      vertex   -9.160048e+001 1.573394e+002 1.922476e+001
      vertex   -9.160048e+001 1.496294e+002 1.922476e+001
      vertex   -9.160048e+001 1.573394e+002 1.172476e+001
    endloop
  endfacet
  facet normal 1.000000e+000 0.000000e+000 0.000000e+000
    outer loop
      vertex   -9.160048e+001 1.573394e+002 1.172476e+001
      vertex   -9.160048e+001 1.496294e+002 1.922476e+001
      vertex   -9.160048e+001 1.496294e+002 1.172476e+001
    endloop
  endfacet
  facet normal 1.000000e+000 0.000000e+000 0.000000e+000
    outer loop
      vertex   -9.160048e+001 1.573394e+002 4.224761e+000
      vertex   -9.160048e+001 1.496294e+002 1.172476e+001
      vertex   -9.160048e+001 1.496294e+002 4.224761e+000
    endloop
  endfacet
  facet normal 1.000000e+000 0.000000e+000 -0.000000e+000
    outer loop
      vertex   -9.160048e+001 1.573394e+002 4.224761e+000
      vertex   -9.160048e+001 1.573394e+002 1.172476e+001
      vertex   -9.160048e+001 1.496294e+002 1.172476e+001
    endloop
  endfacet
  facet normal 1.000000e+000 0.000000e+000 0.000000e+000
    outer loop
      vertex   -9.160048e+001 1.496294e+002 1.922476e+001
      vertex   -9.160048e+001 1.419194e+002 1.922476e+001
      vertex   -9.160048e+001 1.496294e+002 1.172476e+001
    endloop
  endfacet
  facet normal 1.000000e+000 0.000000e+000 0.000000e+000
    outer loop
      vertex   -9.160048e+001 1.496294e+002 1.172476e+001
      vertex   -9.160048e+001 1.419194e+002 1.922476e+001
      vertex   -9.160048e+001 1.419194e+002 1.172476e+001
    endloop
  endfacet
  facet normal 1.000000e+000 0.000000e+000 0.000000e+000
    outer loop
      vertex   -9.160048e+001 1.496294e+002 4.224761e+000
      vertex   -9.160048e+001 1.419194e+002 1.172476e+001
      vertex   -9.160048e+001 1.419194e+002 4.224761e+000
    endloop
  endfacet
  facet normal 1.000000e+000 0.000000e+000 -0.000000e+000
    outer loop
      vertex   -9.160048e+001 1.496294e+002 4.224761e+000
      vertex   -9.160048e+001 1.496294e+002 1.172476e+001
      vertex   -9.160048e+001 1.419194e+002 1.172476e+001
    endloop
  endfacet
  facet normal 2.567453e-015 -1.000000e+000 0.000000e+000
    outer loop
      vertex   -6.946048e+001 1.573394e+002 1.922476e+001
      vertex   -8.053048e+001 1.573394e+002 1.922476e+001
      vertex   -6.946048e+001 1.573394e+002 1.172476e+001
    endloop
  endfacet
  facet normal 6.080951e-031 -1.000000e+000 -3.789561e-015
    outer loop
      vertex   -6.946048e+001 1.573394e+002 1.172476e+001
      vertex   -8.053048e+001 1.573394e+002 1.922476e+001
      vertex   -8.053048e+001 1.573394e+002 1.172476e+001
    endloop
  endfacet
  facet normal 2.567453e-015 -1.000000e+000 3.789561e-015
    outer loop
      vertex   -6.946048e+001 1.573394e+002 4.224761e+000
      vertex   -8.053048e+001 1.573394e+002 1.172476e+001
      vertex   -8.053048e+001 1.573394e+002 4.224761e+000
    endloop
  endfacet
  facet normal -0.000000e+000 -1.000000e+000 0.000000e+000
    outer loop
      vertex   -6.946048e+001 1.573394e+002 4.224761e+000
      vertex   -6.946048e+001 1.573394e+002 1.172476e+001
      vertex   -8.053048e+001 1.573394e+002 1.172476e+001
    endloop
  endfacet
  facet normal -2.567453e-015 -1.000000e+000 -3.789561e-015
    outer loop
      vertex   -8.053048e+001 1.573394e+002 1.922476e+001
      vertex   -9.160048e+001 1.573394e+002 1.922476e+001
      vertex   -8.053048e+001 1.573394e+002 1.172476e+001
    endloop
  endfacet
  facet normal -0.000000e+000 -1.000000e+000 -0.000000e+000
    outer loop
      vertex   -8.053048e+001 1.573394e+002 1.172476e+001
      vertex   -9.160048e+001 1.573394e+002 1.922476e+001
      vertex   -9.160048e+001 1.573394e+002 1.172476e+001
    endloop
  endfacet
  facet normal -2.567453e-015 -1.000000e+000 -0.000000e+000
    outer loop
      vertex   -8.053048e+001 1.573394e+002 4.224761e+000
      vertex   -9.160048e+001 1.573394e+002 1.172476e+001
      vertex   -9.160048e+001 1.573394e+002 4.224761e+000
    endloop
  endfacet
  facet normal 6.080951e-031 -1.000000e+000 3.789561e-015
    outer loop
      vertex   -8.053048e+001 1.573394e+002 4.224761e+000
      vertex   -8.053048e+001 1.573394e+002 1.172476e+001
      vertex   -9.160048e+001 1.573394e+002 1.172476e+001
    endloop
  endfacet
  facet normal -1.000000e+000 0.000000e+000 -0.000000e+000
    outer loop
      vertex   -6.946048e+001 1.419194e+002 1.922476e+001
      vertex   -6.946048e+001 1.496294e+002 1.922476e+001
      vertex   -6.946048e+001 1.419194e+002 1.172476e+001
    endloop
  endfacet
  facet normal -1.000000e+000 0.000000e+000 0.000000e+000
    outer loop
      vertex   -6.946048e+001 1.419194e+002 1.172476e+001
      vertex   -6.946048e+001 1.496294e+002 1.922476e+001
      vertex   -6.946048e+001 1.496294e+002 1.172476e+001
    endloop
  endfacet
  facet normal -1.000000e+000 0.000000e+000 0.000000e+000
    outer loop
      vertex   -6.946048e+001 1.419194e+002 4.224761e+000
      vertex   -6.946048e+001 1.496294e+002 1.172476e+001
      vertex   -6.946048e+001 1.496294e+002 4.224761e+000
    endloop
  endfacet
  facet normal -1.000000e+000 0.000000e+000 0.000000e+000
    outer loop
      vertex   -6.946048e+001 1.419194e+002 4.224761e+000
      vertex   -6.946048e+001 1.419194e+002 1.172476e+001
      vertex   -6.946048e+001 1.496294e+002 1.172476e+001
    endloop
  endfacet
  facet normal -1.000000e+000 0.000000e+000 -0.000000e+000
    outer loop
      vertex   -6.946048e+001 1.496294e+002 1.922476e+001
      vertex   -6.946048e+001 1.573394e+002 1.922476e+001
      vertex   -6.946048e+001 1.496294e+002 1.172476e+001
    endloop
  endfacet
  facet normal -1.000000e+000 0.000000e+000 0.000000e+000
    outer loop
      vertex   -6.946048e+001 1.496294e+002 1.172476e+001
      vertex   -6.946048e+001 1.573394e+002 1.922476e+001
      vertex   -6.946048e+001 1.573394e+002 1.172476e+001
    endloop
  endfacet
  facet normal -1.000000e+000 0.000000e+000 0.000000e+000
    outer loop
      vertex   -6.946048e+001 1.496294e+002 4.224761e+000
      vertex   -6.946048e+001 1.573394e+002 1.172476e+001
      vertex   -6.946048e+001 1.573394e+002 4.224761e+000
    endloop
  endfacet
  facet normal -1.000000e+000 0.000000e+000 0.000000e+000
    outer loop
      vertex   -6.946048e+001 1.496294e+002 4.224761e+000
      vertex   -6.946048e+001 1.496294e+002 1.172476e+001
      vertex   -6.946048e+001 1.573394e+002 1.172476e+001
    endloop
  endfacet
  facet normal 0.000000e+000 0.000000e+000 1.000000e+000
    outer loop
      vertex   -8.053048e+001 1.573394e+002 1.922476e+001
      vertex   -8.469917e+001 1.586918e+002 1.922476e+001
      vertex   -9.160048e+001 1.573394e+002 1.922476e+001
    endloop
  endfacet
  facet normal 0.000000e+000 -0.000000e+000 1.000000e+000
    outer loop
      vertex   -8.053048e+001 1.573394e+002 1.922476e+001
      vertex   -7.653250e+001 1.586918e+002 1.922476e+001
      vertex   -8.469917e+001 1.586918e+002 1.922476e+001
    endloop
  endfacet
  facet normal 0.000000e+000 -0.000000e+000 1.000000e+000
    outer loop
      vertex   -8.053048e+001 1.573394e+002 1.922476e+001
      vertex   -6.946048e+001 1.573394e+002 1.922476e+001
      vertex   -7.653250e+001 1.586918e+002 1.922476e+001
    endloop
  endfacet
  facet normal -0.000000e+000 0.000000e+000 1.000000e+000
    outer loop
      vertex   -7.653250e+001 1.586918e+002 1.922476e+001
      vertex   -6.946048e+001 1.573394e+002 1.922476e+001
      vertex   -6.836583e+001 1.586918e+002 1.922476e+001
    endloop
  endfacet
  facet normal 0.000000e+000 0.000000e+000 1.000000e+000
    outer loop
      vertex   -6.836583e+001 1.586918e+002 1.922476e+001
      vertex   -6.946048e+001 1.573394e+002 1.922476e+001
      vertex   -6.836583e+001 1.496918e+002 1.922476e+001
    endloop
  endfacet
  facet normal 0.000000e+000 0.000000e+000 1.000000e+000
    outer loop
      vertex   -6.836583e+001 1.496918e+002 1.922476e+001
      vertex   -6.946048e+001 1.573394e+002 1.922476e+001
      vertex   -6.946048e+001 1.496294e+002 1.922476e+001
    endloop
  endfacet
  facet normal 0.000000e+000 -0.000000e+000 1.000000e+000
    outer loop
      vertex   -6.946048e+001 1.419194e+002 1.922476e+001
      vertex   -6.836583e+001 1.496918e+002 1.922476e+001
      vertex   -6.946048e+001 1.496294e+002 1.922476e+001
    endloop
  endfacet
  facet normal -0.000000e+000 -0.000000e+000 1.000000e+000
    outer loop
      vertex   -6.946048e+001 1.419194e+002 1.922476e+001
      vertex   -6.836583e+001 1.406918e+002 1.922476e+001
      vertex   -6.836583e+001 1.496918e+002 1.922476e+001
    endloop
  endfacet
  facet normal -0.000000e+000 0.000000e+000 1.000000e+000
    outer loop
      vertex   -6.946048e+001 1.419194e+002 1.922476e+001
      vertex   -7.653250e+001 1.406918e+002 1.922476e+001
      vertex   -6.836583e+001 1.406918e+002 1.922476e+001
    endloop
  endfacet
  facet normal 0.000000e+000 0.000000e+000 1.000000e+000
    outer loop
      vertex   -6.946048e+001 1.419194e+002 1.922476e+001
      vertex   -8.053048e+001 1.419194e+002 1.922476e+001
      vertex   -7.653250e+001 1.406918e+002 1.922476e+001
    endloop
  endfacet
  facet normal 0.000000e+000 0.000000e+000 1.000000e+000
    outer loop
      vertex   -7.653250e+001 1.406918e+002 1.922476e+001
      vertex   -8.053048e+001 1.419194e+002 1.922476e+001
      vertex   -8.469917e+001 1.406918e+002 1.922476e+001
    endloop
  endfacet
  facet normal 0.000000e+000 -0.000000e+000 1.000000e+000
    outer loop
      vertex   -8.469917e+001 1.406918e+002 1.922476e+001
      vertex   -8.053048e+001 1.419194e+002 1.922476e+001
      vertex   -9.160048e+001 1.419194e+002 1.922476e+001
    endloop
  endfacet
  facet normal 0.000000e+000 -0.000000e+000 1.000000e+000
    outer loop
      vertex   -9.286583e+001 1.406918e+002 1.922476e+001
      vertex   -9.160048e+001 1.419194e+002 1.922476e+001
      vertex   -9.286583e+001 1.496918e+002 1.922476e+001
    endloop
  endfacet
  facet normal 0.000000e+000 -0.000000e+000 1.000000e+000
    outer loop
      vertex   -9.286583e+001 1.406918e+002 1.922476e+001
      vertex   -8.469917e+001 1.406918e+002 1.922476e+001
      vertex   -9.160048e+001 1.419194e+002 1.922476e+001
    endloop
  endfacet
  facet normal 0.000000e+000 -0.000000e+000 1.000000e+000
    outer loop
      vertex   -9.160048e+001 1.419194e+002 1.922476e+001
      vertex   -9.160048e+001 1.496294e+002 1.922476e+001
      vertex   -9.286583e+001 1.496918e+002 1.922476e+001
    endloop
  endfacet
  facet normal -0.000000e+000 0.000000e+000 1.000000e+000
    outer loop
      vertex   -9.286583e+001 1.496918e+002 1.922476e+001
      vertex   -9.160048e+001 1.496294e+002 1.922476e+001
      vertex   -9.160048e+001 1.573394e+002 1.922476e+001
    endloop
  endfacet
  facet normal -0.000000e+000 0.000000e+000 1.000000e+000
    outer loop
      vertex   -9.286583e+001 1.586918e+002 1.922476e+001
      vertex   -9.160048e+001 1.573394e+002 1.922476e+001
      vertex   -8.469917e+001 1.586918e+002 1.922476e+001
    endloop
  endfacet
  facet normal -0.000000e+000 0.000000e+000 1.000000e+000
    outer loop
      vertex   -9.286583e+001 1.586918e+002 1.922476e+001
      vertex   -9.286583e+001 1.496918e+002 1.922476e+001
      vertex   -9.160048e+001 1.573394e+002 1.922476e+001
    endloop
  endfacet
  facet normal 0.000000e+000 0.000000e+000 -1.000000e+000
    outer loop
      vertex   -8.053048e+001 1.573394e+002 4.224761e+000
      vertex   -7.653250e+001 1.586918e+002 4.224761e+000
      vertex   -6.946048e+001 1.573394e+002 4.224761e+000
    endloop
  endfacet
  facet normal 0.000000e+000 0.000000e+000 -1.000000e+000
    outer loop
      vertex   -8.053048e+001 1.573394e+002 4.224761e+000
      vertex   -8.469917e+001 1.586918e+002 4.224761e+000
      vertex   -7.653250e+001 1.586918e+002 4.224761e+000
    endloop
  endfacet
  facet normal 0.000000e+000 0.000000e+000 -1.000000e+000
    outer loop
      vertex   -8.053048e+001 1.573394e+002 4.224761e+000
      vertex   -9.160048e+001 1.573394e+002 4.224761e+000
      vertex   -8.469917e+001 1.586918e+002 4.224761e+000
    endloop
  endfacet
  facet normal -0.000000e+000 0.000000e+000 -1.000000e+000
    outer loop
      vertex   -8.469917e+001 1.586918e+002 4.224761e+000
      vertex   -9.160048e+001 1.573394e+002 4.224761e+000
      vertex   -9.286583e+001 1.586918e+002 4.224761e+000
    endloop
  endfacet
  facet normal 0.000000e+000 -0.000000e+000 -1.000000e+000
    outer loop
      vertex   -9.286583e+001 1.586918e+002 4.224761e+000
      vertex   -9.160048e+001 1.573394e+002 4.224761e+000
      vertex   -9.286583e+001 1.496918e+002 4.224761e+000
    endloop
  endfacet
  facet normal 0.000000e+000 0.000000e+000 -1.000000e+000
    outer loop
      vertex   -9.286583e+001 1.496918e+002 4.224761e+000
      vertex   -9.160048e+001 1.573394e+002 4.224761e+000
      vertex   -9.160048e+001 1.496294e+002 4.224761e+000
    endloop
  endfacet
  facet normal 0.000000e+000 0.000000e+000 -1.000000e+000
    outer loop
      vertex   -9.160048e+001 1.419194e+002 4.224761e+000
      vertex   -9.286583e+001 1.496918e+002 4.224761e+000
      vertex   -9.160048e+001 1.496294e+002 4.224761e+000
    endloop
  endfacet
  facet normal -0.000000e+000 0.000000e+000 -1.000000e+000
    outer loop
      vertex   -9.160048e+001 1.419194e+002 4.224761e+000
      vertex   -9.286583e+001 1.406918e+002 4.224761e+000
      vertex   -9.286583e+001 1.496918e+002 4.224761e+000
    endloop
  endfacet
  facet normal -0.000000e+000 -0.000000e+000 -1.000000e+000
    outer loop
      vertex   -9.160048e+001 1.419194e+002 4.224761e+000
      vertex   -8.469917e+001 1.406918e+002 4.224761e+000
      vertex   -9.286583e+001 1.406918e+002 4.224761e+000
    endloop
  endfacet
  facet normal 0.000000e+000 -0.000000e+000 -1.000000e+000
    outer loop
      vertex   -9.160048e+001 1.419194e+002 4.224761e+000
      vertex   -8.053048e+001 1.419194e+002 4.224761e+000
      vertex   -8.469917e+001 1.406918e+002 4.224761e+000
    endloop
  endfacet
  facet normal 0.000000e+000 0.000000e+000 -1.000000e+000
    outer loop
      vertex   -8.469917e+001 1.406918e+002 4.224761e+000
      vertex   -8.053048e+001 1.419194e+002 4.224761e+000
      vertex   -7.653250e+001 1.406918e+002 4.224761e+000
    endloop
  endfacet
  facet normal 0.000000e+000 0.000000e+000 -1.000000e+000
    outer loop
      vertex   -7.653250e+001 1.406918e+002 4.224761e+000
      vertex   -8.053048e+001 1.419194e+002 4.224761e+000
      vertex   -6.946048e+001 1.419194e+002 4.224761e+000
    endloop
  endfacet
  facet normal 0.000000e+000 0.000000e+000 -1.000000e+000
    outer loop
      vertex   -6.836583e+001 1.406918e+002 4.224761e+000
      vertex   -6.946048e+001 1.419194e+002 4.224761e+000
      vertex   -6.836583e+001 1.496918e+002 4.224761e+000
    endloop
  endfacet
  facet normal 0.000000e+000 0.000000e+000 -1.000000e+000
    outer loop
      vertex   -6.836583e+001 1.406918e+002 4.224761e+000
      vertex   -7.653250e+001 1.406918e+002 4.224761e+000
      vertex   -6.946048e+001 1.419194e+002 4.224761e+000
    endloop
  endfacet
  facet normal 0.000000e+000 0.000000e+000 -1.000000e+000
    outer loop
      vertex   -6.946048e+001 1.419194e+002 4.224761e+000
      vertex   -6.946048e+001 1.496294e+002 4.224761e+000
      vertex   -6.836583e+001 1.496918e+002 4.224761e+000
    endloop
  endfacet
  facet normal -0.000000e+000 0.000000e+000 -1.000000e+000
    outer loop
      vertex   -6.836583e+001 1.496918e+002 4.224761e+000
      vertex   -6.946048e+001 1.496294e+002 4.224761e+000
      vertex   -6.946048e+001 1.573394e+002 4.224761e+000
    endloop
  endfacet
  facet normal -0.000000e+000 0.000000e+000 -1.000000e+000
    outer loop
      vertex   -6.836583e+001 1.586918e+002 4.224761e+000
      vertex   -6.946048e+001 1.573394e+002 4.224761e+000
      vertex   -7.653250e+001 1.586918e+002 4.224761e+000
    endloop
  endfacet
  facet normal -0.000000e+000 0.000000e+000 -1.000000e+000
    outer loop
      vertex   -6.836583e+001 1.586918e+002 4.224761e+000
      vertex   -6.836583e+001 1.496918e+002 4.224761e+000
      vertex   -6.946048e+001 1.573394e+002 4.224761e+000
    endloop
  endfacet
  facet normal 0.000000e+000 -1.000000e+000 0.000000e+000
    outer loop
      vertex   -9.286583e+001 1.406918e+002 1.922476e+001
      vertex   -9.286583e+001 1.406918e+002 1.172476e+001
      vertex   -8.469917e+001 1.406918e+002 1.922476e+001
    endloop
  endfacet
  facet normal 0.000000e+000 -1.000000e+000 -0.000000e+000
    outer loop
      vertex   -8.469917e+001 1.406918e+002 1.922476e+001
      vertex   -9.286583e+001 1.406918e+002 1.172476e+001
      vertex   -8.469917e+001 1.406918e+002 1.172476e+001
    endloop
  endfacet
  facet normal 0.000000e+000 -1.000000e+000 -0.000000e+000
    outer loop
      vertex   -7.653250e+001 1.406918e+002 1.922476e+001
      vertex   -8.469917e+001 1.406918e+002 1.172476e+001
      vertex   -7.653250e+001 1.406918e+002 1.172476e+001
    endloop
  endfacet
  facet normal 0.000000e+000 -1.000000e+000 -0.000000e+000
    outer loop
      vertex   -6.836583e+001 1.406918e+002 1.922476e+001
      vertex   -7.653250e+001 1.406918e+002 1.172476e+001
      vertex   -6.836583e+001 1.406918e+002 1.172476e+001
    endloop
  endfacet
  facet normal -0.000000e+000 -1.000000e+000 -0.000000e+000
    outer loop
      vertex   -6.836583e+001 1.406918e+002 1.922476e+001
      vertex   -7.653250e+001 1.406918e+002 1.922476e+001
      vertex   -7.653250e+001 1.406918e+002 1.172476e+001
    endloop
  endfacet
  facet normal 0.000000e+000 -1.000000e+000 0.000000e+000
    outer loop
      vertex   -9.286583e+001 1.406918e+002 1.172476e+001
      vertex   -9.286583e+001 1.406918e+002 4.224761e+000
      vertex   -8.469917e+001 1.406918e+002 1.172476e+001
    endloop
  endfacet
  facet normal 0.000000e+000 -1.000000e+000 -0.000000e+000
    outer loop
      vertex   -8.469917e+001 1.406918e+002 1.172476e+001
      vertex   -9.286583e+001 1.406918e+002 4.224761e+000
      vertex   -8.469917e+001 1.406918e+002 4.224761e+000
    endloop
  endfacet
  facet normal 0.000000e+000 -1.000000e+000 -0.000000e+000
    outer loop
      vertex   -7.653250e+001 1.406918e+002 1.172476e+001
      vertex   -8.469917e+001 1.406918e+002 4.224761e+000
      vertex   -7.653250e+001 1.406918e+002 4.224761e+000
    endloop
  endfacet
  facet normal 0.000000e+000 -1.000000e+000 -0.000000e+000
    outer loop
      vertex   -6.836583e+001 1.406918e+002 1.172476e+001
      vertex   -7.653250e+001 1.406918e+002 4.224761e+000
      vertex   -6.836583e+001 1.406918e+002 4.224761e+000
    endloop
  endfacet
  facet normal 0.000000e+000 -1.000000e+000 -0.000000e+000
    outer loop
      vertex   -6.836583e+001 1.406918e+002 1.172476e+001
      vertex   -7.653250e+001 1.406918e+002 1.172476e+001
      vertex   -7.653250e+001 1.406918e+002 4.224761e+000
    endloop
  endfacet
  facet normal 0.000000e+000 -1.000000e+000 0.000000e+000
    outer loop
      vertex   -8.469917e+001 1.406918e+002 1.172476e+001
      vertex   -8.469917e+001 1.406918e+002 4.224761e+000
      vertex   -7.653250e+001 1.406918e+002 1.172476e+001
    endloop
  endfacet
  facet normal -0.000000e+000 -1.000000e+000 -0.000000e+000
    outer loop
      vertex   -7.653250e+001 1.406918e+002 1.922476e+001
      vertex   -8.469917e+001 1.406918e+002 1.922476e+001
      vertex   -8.469917e+001 1.406918e+002 1.172476e+001
    endloop
  endfacet
  facet normal -1.000000e+000 -0.000000e+000 -0.000000e+000
    outer loop
      vertex   -9.286583e+001 1.586918e+002 1.922476e+001
      vertex   -9.286583e+001 1.586918e+002 1.172476e+001
      vertex   -9.286583e+001 1.496918e+002 1.922476e+001
    endloop
  endfacet
  facet normal -1.000000e+000 0.000000e+000 -0.000000e+000
    outer loop
      vertex   -9.286583e+001 1.496918e+002 1.922476e+001
      vertex   -9.286583e+001 1.586918e+002 1.172476e+001
      vertex   -9.286583e+001 1.496918e+002 1.172476e+001
    endloop
  endfacet
  facet normal -1.000000e+000 -0.000000e+000 -0.000000e+000
    outer loop
      vertex   -9.286583e+001 1.406918e+002 1.922476e+001
      vertex   -9.286583e+001 1.496918e+002 1.172476e+001
      vertex   -9.286583e+001 1.406918e+002 1.172476e+001
    endloop
  endfacet
  facet normal -1.000000e+000 0.000000e+000 0.000000e+000
    outer loop
      vertex   -9.286583e+001 1.406918e+002 1.922476e+001
      vertex   -9.286583e+001 1.496918e+002 1.922476e+001
      vertex   -9.286583e+001 1.496918e+002 1.172476e+001
    endloop
  endfacet
  facet normal -1.000000e+000 -0.000000e+000 -0.000000e+000
    outer loop
      vertex   -9.286583e+001 1.586918e+002 1.172476e+001
      vertex   -9.286583e+001 1.586918e+002 4.224761e+000
      vertex   -9.286583e+001 1.496918e+002 1.172476e+001
    endloop
  endfacet
  facet normal -1.000000e+000 -0.000000e+000 -0.000000e+000
    outer loop
      vertex   -9.286583e+001 1.496918e+002 1.172476e+001
      vertex   -9.286583e+001 1.586918e+002 4.224761e+000
      vertex   -9.286583e+001 1.496918e+002 4.224761e+000
    endloop
  endfacet
  facet normal -1.000000e+000 -0.000000e+000 -0.000000e+000
    outer loop
      vertex   -9.286583e+001 1.406918e+002 1.172476e+001
      vertex   -9.286583e+001 1.496918e+002 4.224761e+000
      vertex   -9.286583e+001 1.406918e+002 4.224761e+000
    endloop
  endfacet
  facet normal -1.000000e+000 0.000000e+000 0.000000e+000
    outer loop
      vertex   -9.286583e+001 1.406918e+002 1.172476e+001
      vertex   -9.286583e+001 1.496918e+002 1.172476e+001
      vertex   -9.286583e+001 1.496918e+002 4.224761e+000
    endloop
  endfacet
  facet normal 0.000000e+000 1.000000e+000 0.000000e+000
    outer loop
      vertex   -6.836583e+001 1.586918e+002 1.922476e+001
      vertex   -6.836583e+001 1.586918e+002 1.172476e+001
      vertex   -7.653250e+001 1.586918e+002 1.922476e+001
    endloop
  endfacet
  facet normal 0.000000e+000 1.000000e+000 0.000000e+000
    outer loop
      vertex   -7.653250e+001 1.586918e+002 1.922476e+001
      vertex   -6.836583e+001 1.586918e+002 1.172476e+001
      vertex   -7.653250e+001 1.586918e+002 1.172476e+001
    endloop
  endfacet
  facet normal 0.000000e+000 1.000000e+000 0.000000e+000
    outer loop
      vertex   -8.469917e+001 1.586918e+002 1.922476e+001
      vertex   -7.653250e+001 1.586918e+002 1.172476e+001
      vertex   -8.469917e+001 1.586918e+002 1.172476e+001
    endloop
  endfacet
  facet normal 0.000000e+000 1.000000e+000 0.000000e+000
    outer loop
      vertex   -9.286583e+001 1.586918e+002 1.922476e+001
      vertex   -8.469917e+001 1.586918e+002 1.172476e+001
      vertex   -9.286583e+001 1.586918e+002 1.172476e+001
    endloop
  endfacet
  facet normal -0.000000e+000 1.000000e+000 0.000000e+000
    outer loop
      vertex   -9.286583e+001 1.586918e+002 1.922476e+001
      vertex   -8.469917e+001 1.586918e+002 1.922476e+001
      vertex   -8.469917e+001 1.586918e+002 1.172476e+001
    endloop
  endfacet
  facet normal 0.000000e+000 1.000000e+000 0.000000e+000
    outer loop
      vertex   -6.836583e+001 1.586918e+002 1.172476e+001
      vertex   -6.836583e+001 1.586918e+002 4.224761e+000
      vertex   -7.653250e+001 1.586918e+002 1.172476e+001
    endloop
  endfacet
  facet normal 0.000000e+000 1.000000e+000 0.000000e+000
    outer loop
      vertex   -7.653250e+001 1.586918e+002 1.172476e+001
      vertex   -6.836583e+001 1.586918e+002 4.224761e+000
      vertex   -7.653250e+001 1.586918e+002 4.224761e+000
    endloop
  endfacet
  facet normal 0.000000e+000 1.000000e+000 0.000000e+000
    outer loop
      vertex   -8.469917e+001 1.586918e+002 1.172476e+001
      vertex   -7.653250e+001 1.586918e+002 4.224761e+000
      vertex   -8.469917e+001 1.586918e+002 4.224761e+000
    endloop
  endfacet
  facet normal 0.000000e+000 1.000000e+000 0.000000e+000
    outer loop
      vertex   -9.286583e+001 1.586918e+002 1.172476e+001
      vertex   -8.469917e+001 1.586918e+002 4.224761e+000
      vertex   -9.286583e+001 1.586918e+002 4.224761e+000
    endloop
  endfacet
  facet normal 0.000000e+000 1.000000e+000 0.000000e+000
    outer loop
      vertex   -9.286583e+001 1.586918e+002 1.172476e+001
      vertex   -8.469917e+001 1.586918e+002 1.172476e+001
      vertex   -8.469917e+001 1.586918e+002 4.224761e+000
    endloop
  endfacet
  facet normal 0.000000e+000 1.000000e+000 0.000000e+000
    outer loop
      vertex   -7.653250e+001 1.586918e+002 1.172476e+001
      vertex   -7.653250e+001 1.586918e+002 4.224761e+000
      vertex   -8.469917e+001 1.586918e+002 1.172476e+001
    endloop
  endfacet
  facet normal -0.000000e+000 1.000000e+000 0.000000e+000
    outer loop
      vertex   -8.469917e+001 1.586918e+002 1.922476e+001
      vertex   -7.653250e+001 1.586918e+002 1.922476e+001
      vertex   -7.653250e+001 1.586918e+002 1.172476e+001
    endloop
  endfacet
  facet normal 1.000000e+000 1.578984e-015 -1.894781e-015
    outer loop
      vertex   -6.836583e+001 1.406918e+002 1.922476e+001
      vertex   -6.836583e+001 1.406918e+002 1.172476e+001
      vertex   -6.836583e+001 1.496918e+002 1.922476e+001
    endloop
  endfacet
  facet normal 1.000000e+000 -1.578984e-015 1.894781e-015
    outer loop
      vertex   -6.836583e+001 1.496918e+002 1.922476e+001
      vertex   -6.836583e+001 1.406918e+002 1.172476e+001
      vertex   -6.836583e+001 1.496918e+002 1.172476e+001
    endloop
  endfacet
  facet normal 1.000000e+000 -0.000000e+000 0.000000e+000
    outer loop
      vertex   -6.836583e+001 1.586918e+002 1.922476e+001
      vertex   -6.836583e+001 1.496918e+002 1.172476e+001
      vertex   -6.836583e+001 1.586918e+002 1.172476e+001
    endloop
  endfacet
  facet normal 1.000000e+000 -1.578984e-015 1.894781e-015
    outer loop
      vertex   -6.836583e+001 1.586918e+002 1.922476e+001
      vertex   -6.836583e+001 1.496918e+002 1.922476e+001
      vertex   -6.836583e+001 1.496918e+002 1.172476e+001
    endloop
  endfacet
  facet normal 1.000000e+000 -1.578984e-015 1.894781e-015
    outer loop
      vertex   -6.836583e+001 1.406918e+002 1.172476e+001
      vertex   -6.836583e+001 1.406918e+002 4.224761e+000
      vertex   -6.836583e+001 1.496918e+002 1.172476e+001
    endloop
  endfacet
  facet normal 1.000000e+000 1.578984e-015 -1.894781e-015
    outer loop
      vertex   -6.836583e+001 1.496918e+002 1.172476e+001
      vertex   -6.836583e+001 1.406918e+002 4.224761e+000
      vertex   -6.836583e+001 1.496918e+002 4.224761e+000
    endloop
  endfacet
  facet normal 1.000000e+000 -1.578984e-015 0.000000e+000
    outer loop
      vertex   -6.836583e+001 1.586918e+002 1.172476e+001
      vertex   -6.836583e+001 1.496918e+002 4.224761e+000
      vertex   -6.836583e+001 1.586918e+002 4.224761e+000
    endloop
  endfacet
  facet normal 1.000000e+000 3.739785e-031 -1.894781e-015
    outer loop
      vertex   -6.836583e+001 1.586918e+002 1.172476e+001
      vertex   -6.836583e+001 1.496918e+002 1.172476e+001
      vertex   -6.836583e+001 1.496918e+002 4.224761e+000
    endloop
  endfacet
endsolid
